<svg width="808" height="796" viewBox="0 0 808 796" fill="none" xmlns="http://www.w3.org/2000/svg">
<path d="M226.571 104.272L383.527 158.316L164.094 795.596L7.1377 741.552L226.571 104.272Z" fill="black"/>
<path d="M219.433 88.3372L376.389 142.381L156.956 779.661L0 725.617L219.433 88.3372Z" fill="#307B74"/>
<path d="M433.902 32.0505L590.8 54.1011L488.698 780.592L331.8 758.542L433.902 32.0505Z" fill="black"/>
<path d="M424.902 12L581.8 34.0506L479.698 760.542L322.8 738.491L424.902 12Z" fill="#8A1538"/>
<path d="M649.404 16L807.747 21.5295L782.144 754.714L623.8 749.184L649.404 16Z" fill="black"/>
<path d="M637.93 0.914062L796.274 6.44354L770.67 739.628L612.327 734.098L637.93 0.914062Z" fill="#FF9D02"/>
<path d="M142.888 615.99C142.079 617.993 141.004 619.73 139.662 621.201C138.305 622.637 136.766 623.741 135.045 624.512C133.324 625.284 131.503 625.698 129.581 625.756C127.67 625.789 125.737 625.411 123.784 624.622C121.831 623.833 120.178 622.762 118.826 621.411C117.484 620.034 116.461 618.471 115.759 616.721C115.067 614.945 114.745 613.075 114.791 611.109C114.813 609.133 115.233 607.132 116.052 605.104C116.961 602.854 118.176 600.987 119.696 599.502C121.202 597.982 122.959 596.908 124.967 596.281L126.969 601.577C125.595 602.057 124.442 602.742 123.507 603.63C122.549 604.508 121.81 605.59 121.29 606.875C120.801 608.087 120.549 609.28 120.535 610.453C120.521 611.627 120.735 612.734 121.177 613.776C121.619 614.817 122.262 615.753 123.106 616.583C123.96 617.388 125.005 618.04 126.241 618.54C127.477 619.039 128.682 619.296 129.856 619.31C131.039 619.299 132.152 619.073 133.193 618.63C134.235 618.188 135.158 617.54 135.963 616.687C136.768 615.833 137.416 614.8 137.905 613.588C138.425 612.303 138.657 611.016 138.602 609.728C138.522 608.431 138.143 607.127 137.464 605.817L142.583 603.399C143.592 605.244 144.122 607.242 144.174 609.391C144.236 611.516 143.808 613.715 142.888 615.99Z" fill="#F9F8F4"/>
<path d="M153.733 589.148C152.904 591.2 151.801 592.969 150.424 594.455C149.058 595.916 147.509 597.045 145.778 597.841C144.057 598.612 142.235 599.027 140.314 599.085C138.402 599.118 136.482 598.745 134.554 597.965C132.625 597.186 130.985 596.121 129.633 594.769C128.291 593.393 127.274 591.817 126.581 590.042C125.889 588.267 125.559 586.379 125.591 584.378C125.623 582.378 126.048 580.364 126.867 578.337C127.696 576.284 128.789 574.54 130.146 573.104C131.513 571.643 133.057 570.527 134.778 569.755C136.509 568.959 138.335 568.532 140.257 568.474C142.153 568.407 144.078 568.767 146.032 569.556C147.96 570.336 149.608 571.418 150.975 572.805C152.317 574.181 153.334 575.757 154.026 577.532C154.703 579.272 155.026 581.143 154.995 583.143C154.973 585.119 154.552 587.121 153.733 589.148ZM148.6 587.117C149.07 585.955 149.302 584.812 149.296 583.688C149.3 582.539 149.081 581.444 148.638 580.403C148.196 579.361 147.548 578.438 146.695 577.633C145.851 576.803 144.811 576.138 143.574 575.639C142.338 575.139 141.128 574.895 139.945 574.906C138.771 574.892 137.664 575.106 136.622 575.548C135.591 575.965 134.677 576.588 133.882 577.418C133.087 578.247 132.455 579.242 131.985 580.404C131.516 581.566 131.279 582.722 131.275 583.871C131.281 584.995 131.505 586.078 131.947 587.119C132.389 588.161 133.032 589.096 133.876 589.926C134.73 590.731 135.775 591.384 137.011 591.883C138.223 592.372 139.428 592.629 140.626 592.653C141.809 592.642 142.917 592.428 143.948 592.011C144.99 591.569 145.908 590.933 146.703 590.104C147.498 589.275 148.131 588.279 148.6 587.117Z" fill="#F9F8F4"/>
<path d="M160.837 570.286L134.875 559.797L136.883 554.827L161.764 547.062L160.79 549.473L142.098 541.92L144.495 535.986L170.457 546.475L168.464 551.408L143.568 559.21L144.542 556.799L163.234 564.352L160.837 570.286Z" fill="#F9F8F4"/>
<path d="M172.938 540.333L146.977 529.844L148.985 524.874L173.865 517.109L172.891 519.52L154.199 511.968L156.597 506.034L182.558 516.523L180.565 521.456L155.67 529.258L156.644 526.847L175.336 534.399L172.938 540.333Z" fill="#F9F8F4"/>
<path d="M171.77 498.591L176.82 486.093L181.493 487.981L176.443 500.479L171.77 498.591ZM182.631 502.462L188.34 488.331L193.161 490.279L185.04 510.381L159.079 499.892L167.005 480.273L171.827 482.221L166.312 495.869L182.631 502.462Z" fill="#F9F8F4"/>
<path d="M200.557 473.254C199.748 475.257 198.673 476.994 197.331 478.465C195.974 479.901 194.435 481.005 192.714 481.777C190.993 482.548 189.172 482.963 187.25 483.021C185.338 483.054 183.406 482.675 181.453 481.886C179.499 481.097 177.847 480.027 176.495 478.675C175.153 477.299 174.13 475.735 173.428 473.985C172.736 472.21 172.413 470.339 172.46 468.374C172.482 466.398 172.902 464.396 173.721 462.369C174.63 460.119 175.845 458.251 177.365 456.766C178.871 455.246 180.628 454.173 182.635 453.546L184.637 458.841C183.264 459.322 182.11 460.006 181.176 460.894C180.218 461.772 179.479 462.854 178.959 464.14C178.47 465.351 178.218 466.544 178.204 467.718C178.19 468.891 178.404 469.999 178.846 471.04C179.288 472.081 179.931 473.017 180.775 473.847C181.629 474.652 182.674 475.304 183.91 475.804C185.146 476.303 186.351 476.56 187.525 476.574C188.708 476.563 189.821 476.337 190.862 475.895C191.904 475.453 192.827 474.805 193.632 473.951C194.437 473.097 195.085 472.064 195.574 470.853C196.094 469.567 196.326 468.28 196.271 466.993C196.191 465.695 195.812 464.391 195.133 463.082L200.252 460.663C201.261 462.509 201.791 464.506 201.843 466.656C201.905 468.78 201.476 470.98 200.557 473.254Z" fill="#F9F8F4"/>
<path d="M208.152 453.175L187.087 444.664L183.73 452.971L178.835 450.994L187.975 428.37L192.871 430.348L189.514 438.656L210.58 447.167L208.152 453.175Z" fill="#F9F8F4"/>
<path d="M714.107 619.168C713.992 621.379 713.539 623.398 712.748 625.225C711.933 627.025 710.837 628.583 709.459 629.9C708.083 631.189 706.496 632.174 704.698 632.855C702.902 633.508 700.951 633.78 698.847 633.669C696.744 633.559 694.833 633.085 693.114 632.247C691.397 631.383 689.922 630.224 688.69 628.771C687.458 627.318 686.544 625.641 685.949 623.741C685.328 621.839 685.076 619.77 685.193 617.533C685.323 615.056 685.852 612.854 686.781 610.927C687.711 608.973 688.998 607.358 690.64 606.082L694.257 610.437C693.139 611.393 692.295 612.457 691.727 613.629C691.131 614.8 690.796 616.091 690.722 617.502C690.651 618.86 690.799 620.11 691.167 621.25C691.534 622.391 692.096 623.395 692.852 624.263C693.609 625.104 694.521 625.779 695.589 626.289C696.659 626.772 697.859 627.049 699.191 627.118C700.496 627.187 701.705 627.037 702.819 626.668C703.935 626.272 704.926 625.697 705.794 624.941C706.636 624.157 707.299 623.231 707.782 622.161C708.267 621.065 708.544 619.851 708.614 618.52C708.681 617.242 708.546 615.993 708.209 614.774C707.847 613.526 707.204 612.304 706.279 611.107L711.145 607.677C712.21 609.255 712.996 611.072 713.503 613.128C714.01 615.158 714.212 617.171 714.107 619.168ZM709.996 613.545L699.49 612.995L699.8 607.083L711.145 607.677L709.996 613.545Z" fill="#F9F8F4"/>
<path d="M714.535 601.828L686.574 600.362L687.208 588.259C687.339 585.755 687.865 583.62 688.786 581.852C689.679 580.083 690.911 578.746 692.481 577.84C694.05 576.935 695.887 576.537 697.991 576.647C700.068 576.756 701.84 577.343 703.306 578.408C704.745 579.471 705.817 580.929 706.521 582.782C707.225 584.635 707.512 586.813 707.38 589.316L706.935 597.824L704.249 594.8L714.875 595.356L714.535 601.828ZM715.467 584.052L704.955 590.511L705.317 583.6L715.833 577.062L715.467 584.052ZM704.968 594.837L701.782 597.554L702.209 589.405C702.313 587.408 701.965 585.894 701.165 584.865C700.338 583.833 699.165 583.278 697.647 583.198C696.103 583.117 694.879 583.547 693.975 584.488C693.071 585.428 692.567 586.897 692.462 588.895L692.035 597.043L689.11 594.006L704.968 594.837Z" fill="#F9F8F4"/>
<path d="M717.266 558.898C717.15 561.108 716.683 563.139 715.865 564.993C715.048 566.819 713.951 568.39 712.574 569.707C711.198 570.997 709.611 571.981 707.813 572.662C706.016 573.315 704.079 573.587 702.002 573.479C699.925 573.37 698.027 572.896 696.308 572.059C694.591 571.194 693.117 570.036 691.884 568.582C690.652 567.129 689.725 565.452 689.104 563.55C688.483 561.648 688.229 559.605 688.344 557.422C688.459 555.212 688.925 553.206 689.74 551.407C690.557 549.58 691.653 548.022 693.029 546.732C694.407 545.416 695.995 544.418 697.793 543.738C699.564 543.056 701.502 542.77 703.606 542.881C705.683 542.989 707.593 543.477 709.337 544.343C711.054 545.207 712.529 546.366 713.761 547.819C714.968 549.244 715.882 550.907 716.504 552.809C717.126 554.684 717.38 556.714 717.266 558.898ZM711.751 558.649C711.817 557.397 711.664 556.241 711.292 555.18C710.922 554.092 710.358 553.128 709.601 552.287C708.844 551.447 707.931 550.785 706.862 550.301C705.794 549.791 704.594 549.501 703.262 549.432C701.931 549.362 700.707 549.525 699.592 549.92C698.477 550.289 697.5 550.852 696.659 551.609C695.82 552.339 695.159 553.226 694.677 554.269C694.195 555.312 693.922 556.459 693.856 557.711C693.79 558.962 693.943 560.132 694.313 561.219C694.685 562.28 695.249 563.231 696.006 564.072C696.763 564.913 697.676 565.588 698.744 566.098C699.813 566.581 701.014 566.858 702.345 566.928C703.65 566.996 704.873 566.846 706.014 566.479C707.129 566.084 708.107 565.521 708.946 564.79C709.787 564.033 710.448 563.133 710.93 562.09C711.412 561.047 711.686 559.9 711.751 558.649Z" fill="#F9F8F4"/>
<path d="M718.146 532.936L689.705 540.618L690.057 533.908L715.239 527.257L715.063 530.612L690.733 521.005L691.047 515.014L716.231 508.323L716.062 511.558L691.723 502.111L692.047 495.92L719.53 506.533L719.165 513.483L697.065 519.415L697.161 517.577L718.51 525.986L718.146 532.936Z" fill="#F9F8F4"/>
<path d="M437.839 628.582L410.184 624.201L411.198 617.801L433.638 621.355L435.834 607.488L441.049 608.314L437.839 628.582Z" fill="#F9F8F4"/>
<path d="M426.034 596.236L428.143 582.922L433.121 583.71L431.012 597.024L426.034 596.236ZM437.487 597.564L439.871 582.512L445.007 583.325L441.616 604.738L413.96 600.358L417.271 579.458L422.407 580.272L420.104 594.811L437.487 597.564Z" fill="#F9F8F4"/>
<path d="M445.238 581.867L419.535 565.161L420.536 558.84L450.15 550.854L449.086 557.57L423.069 563.817L423.469 561.289L446.277 575.309L445.238 581.867ZM440.288 574.766L435.698 572.297L437.95 558.074L443.085 557.106L440.288 574.766Z" fill="#F9F8F4"/>
<path d="M450.605 547.985L422.949 543.604L424.845 531.634C425.237 529.158 425.984 527.089 427.084 525.427C428.158 523.762 429.522 522.56 431.178 521.824C432.834 521.087 434.702 520.883 436.783 521.213C438.837 521.538 440.538 522.307 441.884 523.519C443.205 524.727 444.119 526.29 444.625 528.206C445.132 530.122 445.189 532.318 444.797 534.794L443.464 543.209L441.109 539.92L451.618 541.584L450.605 547.985ZM453.389 530.404L442.259 535.728L443.342 528.893L454.484 523.49L453.389 530.404ZM441.82 540.033L438.367 542.402L439.644 534.342C439.957 532.367 439.769 530.825 439.08 529.717C438.366 528.605 437.258 527.93 435.756 527.692C434.229 527.45 432.966 527.75 431.969 528.591C430.972 529.432 430.317 530.84 430.004 532.815L428.728 540.875L426.136 537.548L441.82 540.033Z" fill="#F9F8F4"/>
<path d="M455.206 518.933L427.551 514.553L428.389 509.259L450.885 496.096L450.479 498.664L430.567 495.51L431.568 489.189L459.223 493.569L458.391 498.823L435.889 512.026L436.295 509.458L456.207 512.612L455.206 518.933Z" fill="#F9F8F4"/>
</svg>
