<svg xmlns="http://www.w3.org/2000/svg" width="512" height="512" viewBox="0 0 512 512">
<g>
<path d="M 193.06,86.13 L 195.52,86.14 L 200.21,86.14 L 202.52,86.15 L 206.88,86.16 L 209.01,86.17 L 213.00,86.18 L 214.94,86.19 L 218.53,86.21 L 220.27,86.22 L 223.43,86.24 L 224.95,86.26 L 227.64,86.28 L 228.93,86.30 L 231.12,86.33 L 232.15,86.35 L 233.82,86.38 L 234.58,86.40 L 235.68,86.44 L 236.67,86.50 L 238.36,86.70 L 241.49,87.62 L 243.01,88.15 L 245.75,89.66 L 247.06,90.49 L 249.36,92.51 L 250.45,93.58 L 252.25,96.03 L 253.09,97.31 L 253.69,98.66 L 253.04,97.40 L 252.16,96.26 L 251.82,96.06 L 251.51,95.91 L 251.40,95.94 L 251.20,96.07 L 251.17,96.25 L 251.13,96.67 L 251.19,97.00 L 251.36,97.75 L 251.52,98.25 L 251.85,99.57 L 252.08,100.78 L 252.19,101.49 L 252.60,104.58 L 252.72,106.13 L 252.62,110.57 L 252.10,113.37 L 251.62,114.67 L 250.53,117.19 L 249.77,118.32 L 248.13,120.48 L 247.11,121.40 L 245.62,123.00 L 245.00,123.92 L 245.00,124.15 L 245.05,124.61 L 245.14,124.76 L 245.36,125.00 L 245.53,125.05 L 246.34,125.04 L 246.63,124.90 L 245.53,125.72 L 244.83,126.19 L 243.43,126.95 L 241.38,127.77 L 241.19,127.83 L 240.78,127.90 L 240.91,127.85 L 242.56,127.16 L 243.11,126.81 L 243.61,126.45 L 243.76,126.28 L 244.00,125.95 L 244.00,125.80 L 243.54,125.26 L 242.85,125.23 L 242.42,125.39 L 240.33,125.82 L 238.44,126.00 L 237.53,126.00 L 234.96,126.41 L 234.33,126.70 L 234.11,126.88 L 233.73,127.27 L 233.64,127.50 L 233.49,127.99 L 233.51,128.18 L 233.57,128.42 L 232.03,128.47 L 230.92,128.50 L 228.39,128.57 L 227.07,128.60 L 224.07,128.66 L 222.52,128.69 L 219.04,128.73 L 217.24,128.76 L 213.26,128.80 L 211.21,128.82 L 206.69,128.86 L 204.37,128.87 L 199.30,128.90 L 196.69,128.92 L 191.04,128.94 L 188.13,128.95 L 181.87,128.97 L 178.66,128.97 L 171.77,128.99 L 168.24,128.99 L 160.69,129.00 L 148.60,129.00 L 145.57,129.00 L 139.80,129.00 L 136.97,129.00 L 131.58,129.00 L 128.93,129.00 L 123.91,129.00 L 121.44,129.00 L 116.77,129.00 L 114.48,129.00 L 110.14,129.01 L 108.02,129.01 L 104.01,129.02 L 102.04,129.02 L 98.34,129.03 L 96.53,129.04 L 93.13,129.05 L 91.46,129.06 L 88.35,129.08 L 86.82,129.10 L 83.97,129.12 L 81.18,129.15 L 76.36,129.24 L 74.07,129.28 L 70.15,129.40 L 68.29,129.47 L 65.16,129.63 L 63.68,129.71 L 61.23,129.93 L 60.08,130.04 L 58.20,130.30 L 57.32,130.44 L 55.91,130.77 L 55.35,130.92 L 55.76,130.71 L 56.92,130.19 L 57.41,130.03 L 59.95,128.92 L 60.53,128.54 L 60.72,128.37 L 61.00,128.05 L 61.00,127.92 L 60.41,127.10 L 59.45,127.01 L 58.72,127.19 L 57.08,127.70 L 56.03,128.17 L 53.79,129.26 L 52.47,130.02 L 49.28,132.04 L 47.73,133.26 L 47.24,133.80 L 46.46,134.82 L 46.37,135.25 L 46.40,136.06 L 46.71,136.38 L 46.96,136.45 L 47.19,136.38 L 47.73,136.15 L 48.08,135.94 L 49.40,135.05 L 49.27,135.17 L 48.40,136.14 L 47.97,136.65 L 47.09,137.80 L 44.91,141.21 L 44.68,141.66 L 44.29,142.89 L 44.20,143.27 L 44.04,144.29 L 43.97,144.86 L 43.83,146.35 L 43.76,147.18 L 43.64,149.29 L 43.59,150.44 L 43.49,153.31 L 43.44,154.85 L 43.36,158.62 L 43.34,159.63 L 43.31,161.83 L 43.29,162.96 L 43.26,165.44 L 43.24,166.72 L 43.22,169.49 L 43.20,170.91 L 43.18,173.99 L 43.17,175.56 L 43.14,178.97 L 43.13,180.71 L 43.12,184.46 L 43.11,186.38 L 43.09,190.49 L 43.08,192.59 L 43.07,197.08 L 43.06,199.38 L 43.05,204.26 L 43.05,206.76 L 43.04,212.06 L 43.03,214.77 L 43.03,220.50 L 43.02,223.43 L 43.02,229.61 L 43.01,232.76 L 43.01,239.42 L 43.01,242.80 L 43.01,249.94 L 43.00,253.58 L 43.00,261.22 L 43.00,265.10 L 43.00,273.27 L 43.00,277.42 L 43.00,286.12 L 43.00,299.80 L 43.00,454.69 L 45.33,459.09 L 45.65,459.70 L 46.57,461.04 L 47.06,461.72 L 48.22,463.09 L 48.82,463.76 L 50.08,464.99 L 51.91,466.50 L 55.67,469.15 L 55.56,469.21 L 55.38,469.41 L 55.38,469.59 L 55.45,470.02 L 55.57,470.32 L 56.63,471.55 L 57.74,472.19 L 58.33,472.31 L 58.75,472.33 L 59.35,472.35 L 60.79,472.38 L 61.88,472.39 L 64.30,472.42 L 65.85,472.44 L 69.20,472.47 L 71.19,472.48 L 75.41,472.51 L 77.82,472.52 L 82.85,472.55 L 85.65,472.56 L 91.44,472.59 L 94.61,472.60 L 101.11,472.63 L 104.61,472.64 L 111.77,472.67 L 115.58,472.68 L 123.35,472.70 L 127.44,472.72 L 135.76,472.74 L 140.11,472.75 L 148.93,472.77 L 153.51,472.78 L 162.77,472.80 L 167.56,472.80 L 177.22,472.82 L 182.18,472.83 L 192.18,472.84 L 197.29,472.85 L 207.59,472.86 L 212.82,472.86 L 225.06,472.87 L 232.89,472.88 L 236.65,472.88 L 244.05,472.89 L 247.59,472.89 L 254.57,472.89 L 257.90,472.89 L 264.47,472.90 L 267.61,472.90 L 273.79,472.90 L 276.73,472.90 L 282.52,472.89 L 285.28,472.89 L 290.70,472.89 L 293.28,472.89 L 298.34,472.88 L 300.74,472.88 L 305.46,472.87 L 307.69,472.87 L 312.07,472.86 L 314.14,472.85 L 318.20,472.84 L 320.11,472.83 L 323.86,472.82 L 325.62,472.81 L 329.07,472.79 L 330.68,472.79 L 333.85,472.77 L 335.32,472.76 L 338.21,472.73 L 339.56,472.72 L 344.68,472.67 L 346.87,472.64 L 351.02,472.58 L 352.77,472.54 L 356.06,472.47 L 357.41,472.43 L 359.92,472.34 L 360.92,472.29 L 362.76,472.18 L 363.46,472.13 L 364.71,472.01 L 365.16,471.94 L 365.93,471.81 L 366.17,471.73 L 366.56,471.58 L 366.64,471.50 L 366.65,471.26 L 366.39,471.12 L 366.09,471.05 L 365.36,470.92 L 364.79,470.87 L 363.50,470.75 L 362.62,470.70 L 360.67,470.60 L 359.42,470.56 L 356.71,470.48 L 355.04,470.44 L 351.48,470.37 L 349.35,470.33 L 344.83,470.27 L 342.17,470.25 L 339.45,470.22 L 337.99,470.21 L 334.99,470.19 L 333.38,470.18 L 330.08,470.16 L 328.32,470.15 L 324.73,470.13 L 322.81,470.12 L 318.89,470.10 L 316.81,470.10 L 312.57,470.08 L 310.32,470.07 L 305.73,470.06 L 303.31,470.06 L 298.37,470.05 L 295.76,470.04 L 290.45,470.03 L 287.65,470.03 L 281.97,470.02 L 278.98,470.02 L 272.90,470.01 L 269.71,470.01 L 263.22,470.00 L 259.83,470.00 L 252.93,470.00 L 249.32,469.99 L 241.99,469.99 L 238.16,469.99 L 230.39,469.99 L 226.33,469.99 L 218.11,469.99 L 213.82,469.99 L 198.09,469.98 L 187.80,469.98 L 182.78,469.97 L 172.81,469.96 L 167.96,469.95 L 158.36,469.94 L 153.72,469.93 L 144.55,469.92 L 140.14,469.91 L 131.45,469.89 L 127.31,469.87 L 119.15,469.85 L 115.29,469.84 L 107.71,469.81 L 104.17,469.80 L 97.23,469.77 L 94.03,469.75 L 87.79,469.72 L 84.95,469.71 L 79.46,469.67 L 77.01,469.66 L 72.32,469.62 L 70.29,469.60 L 66.45,469.57 L 64.87,469.55 L 62.23,469.51 L 210.84,469.79 L 217.68,469.81 L 230.62,469.83 L 236.98,469.84 L 248.96,469.85 L 254.84,469.86 L 265.88,469.87 L 271.28,469.87 L 281.40,469.87 L 286.34,469.87 L 295.55,469.86 L 300.04,469.85 L 308.37,469.84 L 312.42,469.83 L 319.87,469.81 L 323.49,469.79 L 330.10,469.76 L 333.30,469.75 L 339.08,469.71 L 341.86,469.69 L 346.83,469.65 L 349.21,469.62 L 353.39,469.57 L 355.38,469.54 L 358.78,469.48 L 360.39,469.45 L 363.04,469.38 L 364.27,469.34 L 366.18,469.26 L 367.05,469.22 L 368.25,469.14 L 369.27,469.00 L 370.37,468.68 L 372.75,467.45 L 373.95,466.76 L 376.23,465.01 L 373.88,466.94 L 373.02,467.53 L 372.70,467.71 L 372.13,468.00 L 372.00,468.00 L 371.29,468.27 L 371.00,468.66 L 371.00,468.91 L 371.08,469.33 L 371.26,469.44 L 371.70,469.58 L 372.06,469.55 L 372.89,469.41 L 373.46,469.24 L 374.71,468.82 L 375.50,468.50 L 377.73,467.34 L 378.98,466.42 L 379.47,465.91 L 380.33,464.87 L 380.60,464.33 L 381.00,463.25 L 381.00,462.73 L 380.85,461.85 L 380.57,461.65 L 380.28,461.77 L 379.60,462.16 L 379.06,462.59 L 377.85,463.61 L 377.62,463.82 L 379.45,461.89 L 381.80,458.60 L 382.00,458.25 L 382.32,457.15 L 382.40,456.82 L 382.54,455.98 L 382.61,455.52 L 382.74,454.37 L 382.80,453.75 L 382.91,452.22 L 382.96,451.41 L 383.06,449.44 L 383.11,448.39 L 383.19,445.90 L 383.23,444.59 L 383.31,441.52 L 383.35,439.90 L 383.42,436.18 L 383.45,434.23 L 383.51,429.78 L 383.54,427.46 L 383.60,422.23 L 383.63,419.50 L 383.68,413.41 L 383.71,410.25 L 383.76,403.22 L 383.79,399.59 L 383.84,391.57 L 383.85,389.49 L 383.88,385.15 L 383.89,382.95 L 383.92,378.34 L 383.93,375.99 L 383.96,371.10 L 384.00,363.43 L 384.50,271.35 L 387.26,267.18 L 387.64,266.61 L 388.56,265.48 L 388.49,265.70 L 388.66,265.81 L 389.14,265.95 L 389.58,265.96 L 391.62,265.29 L 393.13,264.29 L 393.80,263.65 L 395.05,262.32 L 395.43,261.68 L 395.76,261.05 L 395.83,260.77 L 395.91,260.23 L 395.84,260.02 L 395.38,259.85 L 394.81,260.02 L 394.42,260.24 L 393.57,260.75 L 393.07,261.11 L 392.24,261.75 L 392.35,261.66 L 394.18,260.26 L 395.06,259.68 L 396.56,258.85 L 397.30,258.49 L 398.81,258.02 L 399.59,257.82 L 401.44,257.61 L 405.00,257.50 L 405.44,257.50 L 403.46,257.59 L 402.31,257.73 L 401.85,257.84 L 401.03,258.08 L 400.76,258.23 L 400.31,258.56 L 400.25,258.75 L 400.21,259.17 L 400.37,259.33 L 400.81,259.61 L 401.23,259.71 L 402.21,259.88 L 402.91,259.93 L 404.48,260.00 L 405.50,260.00 L 408.09,259.93 L 409.35,259.81 L 409.77,259.71 L 410.47,259.49 L 410.63,259.33 L 410.83,258.98 L 410.75,258.75 L 410.24,258.23 L 409.60,257.94 L 409.15,257.84 L 408.46,257.70 L 409.22,257.79 L 411.16,258.19 L 412.11,258.42 L 413.89,259.05 L 414.76,259.39 L 416.38,260.25 L 417.17,260.71 L 418.63,261.80 L 419.34,262.37 L 420.64,263.68 L 421.27,264.37 L 422.41,265.91 L 423.95,268.48 L 426.50,273.45 L 426.50,285.19 L 426.48,284.72 L 426.44,283.99 L 426.34,282.64 L 426.29,282.12 L 426.19,281.18 L 426.13,280.84 L 426.01,280.24 L 425.95,280.05 L 425.67,279.57 L 425.50,279.64 L 425.06,280.41 L 424.93,280.97 L 424.87,281.36 L 424.76,282.22 L 424.71,282.79 L 424.61,284.01 L 424.57,284.78 L 424.48,286.42 L 424.45,287.41 L 424.37,289.52 L 424.34,290.78 L 424.28,293.41 L 424.26,294.94 L 424.21,298.16 L 424.18,300.00 L 424.14,303.85 L 424.13,306.03 L 424.10,310.56 L 424.08,313.11 L 424.06,318.38 L 424.05,321.32 L 424.03,327.39 L 424.03,330.74 L 424.01,337.66 L 424.01,341.46 L 424.00,349.28 L 424.00,353.55 L 424.00,362.34 L 424.00,367.11 L 424.00,376.42 L 424.00,380.70 L 424.01,389.02 L 424.01,392.83 L 424.02,400.20 L 424.03,403.56 L 424.04,410.05 L 424.05,412.99 L 424.07,418.65 L 424.08,421.19 L 424.11,426.08 L 424.13,428.25 L 424.16,432.42 L 424.18,434.25 L 424.23,437.75 L 424.25,439.27 L 424.31,442.16 L 424.34,443.39 L 424.41,445.72 L 424.44,446.70 L 424.52,448.52 L 424.57,449.27 L 424.66,450.65 L 424.71,451.19 L 424.81,452.18 L 424.87,452.54 L 424.99,453.19 L 425.06,453.41 L 425.33,454.00 L 425.50,454.00 L 425.94,453.40 L 426.03,453.06 L 426.00,453.79 L 425.96,454.89 L 425.87,456.50 L 425.83,456.37 L 425.71,456.33 L 425.44,456.34 L 425.23,456.46 L 424.75,456.79 L 424.41,457.07 L 423.35,458.78 L 423.21,460.32 L 423.42,461.34 L 423.50,463.82 L 423.19,465.27 L 422.88,465.64 L 422.29,466.45 L 422.29,466.67 L 422.46,467.00 L 422.83,467.00 L 423.28,466.73 L 423.62,466.31 L 423.79,466.00 L 424.50,464.52 L 424.82,463.56 L 425.35,461.83 L 425.24,462.50 L 424.68,464.93 L 423.93,467.55 L 422.57,471.15 L 422.62,470.81 L 422.61,470.60 L 422.55,470.22 L 422.46,470.12 L 421.59,470.26 L 420.82,470.94 L 420.44,471.45 L 419.70,472.54 L 419.43,473.12 L 419.00,474.25 L 419.00,474.69 L 419.09,475.38 L 419.25,475.62 L 419.61,476.00 L 419.84,476.00 L 420.31,475.78 L 420.66,475.44 L 420.83,475.19 L 421.19,474.63 L 421.04,474.99 L 418.64,479.63 L 417.38,481.90 L 414.49,486.16 L 412.99,488.24 L 409.64,492.10 L 407.91,493.98 L 404.12,497.40 L 402.17,499.06 L 397.97,502.03 L 395.82,503.45 L 391.22,505.94 L 383.92,509.09 L 379.46,510.72 L 381.79,509.82 L 382.35,509.49 L 382.53,509.34 L 382.82,509.04 L 382.87,508.91 L 382.89,508.65 L 382.79,508.54 L 382.54,508.33 L 382.31,508.25 L 381.78,508.11 L 381.40,508.07 L 380.59,508.00 L 380.07,508.00 L 378.08,508.35 L 376.71,508.88 L 376.11,509.24 L 374.98,510.00 L 374.60,510.40 L 374.00,511.21 L 374.00,511.57 L 374.06,511.85 L 374.21,511.91 L 374.62,511.98 L 375.00,511.92 L 375.89,511.76 L 376.56,511.58 L 378.09,511.16 L 379.03,510.87 L 375.94,512.00 L 52.40,511.88 L 53.31,511.63 L 53.56,511.01 L 53.36,510.50 L 52.55,509.44 L 51.78,509.00 L 51.39,509.00 L 50.41,509.44 L 50.00,510.09 L 50.00,510.50 L 50.22,511.29 L 50.58,511.56 L 51.20,511.88 L 50.50,511.88 L 43.68,509.52 L 41.30,508.70 L 36.74,506.64 L 34.49,505.55 L 30.20,502.99 L 28.10,501.64 L 24.13,498.61 L 22.18,497.03 L 18.57,493.57 L 16.81,491.78 L 13.59,487.93 L 12.04,485.95 L 9.25,481.75 L 7.92,479.60 L 5.61,475.08 L 2.72,468.00 L 0.50,461.50 L 0.49,456.22 L 0.67,457.95 L 0.89,459.68 L 1.00,460.41 L 1.22,461.75 L 1.32,462.22 L 1.50,463.01 L 1.58,463.13 L 2.10,463.78 L 2.37,463.90 L 2.91,464.03 L 3.16,463.92 L 3.61,463.58 L 3.76,463.26 L 4.00,462.51 L 4.00,462.00 L 3.78,460.59 L 3.46,460.00 L 3.25,460.00 L 2.99,459.58 L 2.86,458.91 L 2.82,458.43 L 2.76,457.36 L 2.76,456.72 L 2.79,455.38 L 2.83,454.64 L 2.93,451.94 L 2.87,450.64 L 2.77,450.20 L 2.51,449.42 L 2.29,449.17 L 1.79,448.75 L 1.44,448.61 L 0.52,448.46 L 0.48,448.49 L 0.23,302.00 L -0.04,142.50 L 2.53,133.54 L 3.18,131.27 L 4.75,126.96 L 5.58,124.83 L 7.52,120.80 L 8.54,118.83 L 10.84,115.09 L 12.03,113.26 L 14.69,109.82 L 16.06,108.14 L 19.06,105.01 L 20.60,103.48 L 23.48,101.06 L 23.35,101.53 L 23.51,101.71 L 23.99,102.00 L 24.41,102.00 L 25.81,101.39 L 26.74,100.50 L 27.04,99.92 L 27.58,98.83 L 27.72,98.42 L 27.65,98.35 L 27.44,98.30 L 27.19,98.41 L 26.59,98.68 L 26.48,98.74 L 29.00,97.03 L 29.00,97.16 L 29.15,97.69 L 29.40,97.82 L 29.99,98.00 L 30.38,97.96 L 31.20,97.81 L 31.63,97.61 L 32.46,97.14 L 32.80,96.80 L 33.81,95.53 L 34.02,94.94 L 33.89,94.79 L 33.50,94.58 L 33.11,94.64 L 35.25,93.42 L 37.02,92.52 L 39.86,91.06 L 41.25,90.38 L 44.07,89.31 L 44.82,89.06 L 46.48,88.63 L 47.35,88.43 L 49.34,88.08 L 50.39,87.91 L 51.32,87.80 L 50.64,88.29 L 50.41,88.86 L 50.56,89.10 L 51.09,89.70 L 51.44,89.84 L 52.17,90.01 L 52.55,89.95 L 53.31,89.73 L 53.62,89.49 L 54.20,88.91 L 54.36,88.50 L 54.55,87.55 L 54.51,87.46 L 57.12,87.26 L 58.71,87.15 L 62.41,86.98 L 64.36,86.90 L 64.50,86.89 L 64.19,86.96 L 64.01,87.03 L 63.57,87.31 L 63.63,87.48 L 64.38,87.94 L 64.91,88.07 L 65.29,88.13 L 66.13,88.25 L 66.68,88.30 L 67.88,88.40 L 68.63,88.44 L 70.24,88.53 L 71.23,88.57 L 73.31,88.64 L 74.56,88.67 L 77.18,88.73 L 78.71,88.76 L 81.92,88.81 L 83.76,88.83 L 87.62,88.87 L 89.81,88.89 L 94.37,88.92 L 96.94,88.93 L 102.26,88.95 L 105.23,88.96 L 111.37,88.97 L 114.77,88.98 L 121.79,88.99 L 125.65,88.99 L 133.60,88.99 L 137.95,88.99 L 146.89,88.99 L 151.76,88.99 L 169.35,88.99 L 180.54,89.01 L 185.79,89.02 L 190.97,89.03 L 193.45,89.04 L 198.36,89.05 L 200.70,89.06 L 205.30,89.08 L 207.47,89.09 L 211.74,89.11 L 213.73,89.12 L 217.63,89.14 L 219.43,89.15 L 222.93,89.18 L 224.52,89.19 L 227.59,89.22 L 228.96,89.23 L 231.58,89.26 L 232.70,89.28 L 234.83,89.31 L 235.70,89.33 L 237.32,89.36 L 237.92,89.37 L 238.99,89.41 L 239.30,89.43 L 239.79,89.46 L 239.81,89.48 L 240.32,89.75 L 240.78,89.85 L 241.82,90.00 L 242.38,90.00 L 243.48,89.96 L 243.87,89.86 L 243.89,89.75 L 243.81,89.47 L 243.61,89.23 L 243.10,88.67 L 242.68,88.25 L 241.72,87.70 L 241.19,87.55 L 240.83,87.48 L 240.03,87.34 L 239.51,87.28 L 238.38,87.16 L 237.67,87.11 L 236.13,87.00 L 235.19,86.96 L 233.18,86.87 L 231.97,86.83 L 229.41,86.75 L 227.90,86.72 L 224.73,86.66 L 222.88,86.63 L 219.01,86.57 L 216.80,86.55 L 212.17,86.50 L 209.54,86.48 L 204.08,86.44 L 201.01,86.42 L 194.64,86.38 L 191.10,86.37 L 183.75,86.33 L 179.69,86.32 L 175.56,86.30 L 173.40,86.29 L 169.00,86.28 L 166.69,86.27 L 162.01,86.26 L 159.56,86.25 L 154.58,86.23 L 151.99,86.22 L 145.79,86.21 L 148.62,86.19 L 160.48,86.16 L 166.33,86.15 L 177.47,86.13 L 180.19,86.13 L 185.46,86.13 L 188.06,86.13 M 377.00,464.38 L 376.60,464.71 L 377.06,464.33 M 41.50,146.00 L 41.27,146.43 L 41.12,146.97 L 41.06,147.41 L 40.93,148.39 L 40.87,149.07 L 40.76,150.58 L 40.71,151.57 L 40.61,153.71 L 40.57,155.05 L 40.48,157.91 L 40.44,159.65 L 40.37,163.33 L 40.34,165.51 L 40.28,170.11 L 40.25,172.79 L 40.23,175.53 L 40.22,177.00 L 40.19,180.01 L 40.18,181.62 L 40.16,184.91 L 40.15,186.66 L 40.13,190.24 L 40.13,192.15 L 40.11,196.03 L 40.10,198.09 L 40.09,202.29 L 40.08,204.52 L 40.07,209.05 L 40.06,211.44 L 40.05,216.31 L 40.05,218.87 L 40.04,224.09 L 40.04,226.84 L 40.03,232.43 L 40.03,235.36 L 40.02,241.32 L 40.02,244.45 L 40.01,250.80 L 40.01,254.12 L 40.01,260.87 L 40.01,264.40 L 40.00,271.56 L 40.00,275.30 L 40.00,282.88 L 40.00,286.84 L 40.00,294.86 L 40.00,299.04 L 40.00,314.51 L 40.01,324.63 L 40.01,329.57 L 40.02,339.36 L 40.03,344.12 L 40.04,353.55 L 40.05,358.10 L 40.06,367.11 L 40.07,371.43 L 40.09,379.96 L 40.10,384.03 L 40.13,392.03 L 40.14,395.82 L 40.16,403.24 L 40.18,406.71 L 40.21,413.50 L 40.22,416.64 L 40.25,422.74 L 40.27,425.52 L 40.30,430.89 L 40.32,433.28 L 40.35,437.85 L 40.37,439.83 L 40.41,443.56 L 40.43,445.10 L 40.47,447.94 L 40.49,449.00 L 40.52,450.90 L 40.55,451.47 L 40.59,452.36 L 40.61,452.42 L 41.03,453.25 L 41.30,453.54 L 41.86,454.00 L 42.11,454.00 L 42.20,453.25 L 42.26,452.02 L 42.29,451.05 L 42.35,448.88 L 42.38,447.45 L 42.44,444.37 L 42.47,442.51 L 42.52,438.56 L 42.54,436.28 L 42.59,431.51 L 42.62,428.82 L 42.66,423.26 L 42.69,420.20 L 42.73,413.89 L 42.75,410.46 L 42.79,403.44 L 42.80,399.67 L 42.84,391.97 L 42.85,387.88 L 42.88,379.54 L 42.90,375.15 L 42.92,366.21 L 42.93,361.53 L 42.95,352.04 L 42.96,347.09 L 42.98,337.07 L 42.98,331.88 L 42.99,321.38 L 43.00,315.96 L 43.00,305.01 L 43.00,299.38 L 43.00,286.85 L 43.00,278.85 L 43.00,275.01 L 43.00,267.45 L 42.99,263.84 L 42.99,256.72 L 42.99,253.31 L 42.99,246.61 L 42.98,243.42 L 42.98,237.13 L 42.98,234.13 L 42.97,228.24 L 42.97,225.44 L 42.96,219.93 L 42.95,217.32 L 42.94,212.19 L 42.94,209.76 L 42.93,204.98 L 42.92,202.73 L 42.91,198.30 L 42.90,196.22 L 42.88,192.13 L 42.88,190.21 L 42.86,186.44 L 42.85,184.68 L 42.83,181.22 L 42.82,179.61 L 42.80,176.45 L 42.79,174.98 L 42.76,172.11 L 42.75,170.78 L 42.69,165.72 L 42.66,163.57 L 42.60,159.52 L 42.56,157.83 L 42.48,154.69 L 42.44,153.42 L 42.35,151.09 L 42.30,150.19 L 42.19,148.56 L 42.13,147.98 L 42.01,146.96 L 41.95,146.64 L 41.81,146.13 L 41.74,146.03 L 41.58,145.93 M 444.50,144.00 L 359.53,228.97 L 353.69,234.81 L 350.84,237.66 L 355.75,232.75 L 359.22,229.27 L 370.13,218.36 L 376.99,211.49 L 380.22,208.25 L 386.53,201.91 L 389.49,198.94 L 395.27,193.13 L 397.97,190.41 L 403.23,185.11 L 405.67,182.64 L 410.41,177.84 L 412.60,175.62 L 416.85,171.31 L 418.79,169.33 L 422.54,165.50 L 424.24,163.76 L 427.52,160.39 L 428.98,158.88 L 431.79,155.97 L 433.02,154.69 L 435.36,152.23 L 436.37,151.16 L 438.26,149.14 L 439.05,148.29 L 440.51,146.69 L 441.07,146.05 L 442.10,144.87 L 442.46,144.43 L 443.07,143.65 L 443.22,143.41 L 443.43,143.03 L 443.38,142.98 L 442.92,142.92 L 442.43,143.11 L 442.09,143.32 L 441.35,143.83 L 440.88,144.20 L 439.86,145.04 L 439.25,145.58 L 437.95,146.76 L 437.18,147.48 L 435.58,149.02 L 434.66,149.93 L 432.74,151.83 L 431.66,152.93 L 429.41,155.22 L 428.16,156.51 L 422.66,162.28 L 421.01,164.05 L 420.26,164.87 L 418.80,166.47 L 418.16,167.18 L 416.94,168.56 L 416.43,169.15 L 415.48,170.27 L 415.12,170.71 L 414.48,171.52 L 414.29,171.79 L 414.00,172.25 L 414.00,172.34 L 413.53,173.29 L 412.80,174.27 L 412.27,174.88 L 411.12,176.17 L 410.45,176.88 L 409.04,178.34 L 408.29,179.07 L 405.22,182.01 L 403.88,183.14 L 402.59,184.20 L 402.07,184.57 L 401.13,185.20 L 400.84,185.30 L 399.26,186.53 L 398.20,187.91 L 397.83,188.68 L 396.04,191.06 L 394.41,192.48 L 393.62,192.85 L 391.45,194.38 L 390.88,194.98 L 390.68,195.28 L 390.33,195.86 L 390.26,196.12 L 389.81,196.98 L 389.31,197.60 L 388.97,197.91 L 387.46,199.11 L 386.59,199.53 L 385.86,200.03 L 385.09,200.67 L 384.57,201.13 L 383.44,202.13 L 382.75,202.76 L 381.28,204.11 L 380.44,204.91 L 378.67,206.57 L 377.67,207.52 L 375.62,209.48 L 374.50,210.56 L 372.19,212.78 L 370.95,213.98 L 368.41,216.45 L 367.07,217.76 L 361.49,223.23 L 358.45,226.22 L 352.23,232.36 L 348.96,235.61 L 342.31,242.21 L 338.90,245.62 L 332.03,252.49 L 328.58,255.95 L 321.70,262.87 L 318.32,266.28 L 311.62,273.05 L 308.42,276.31 L 302.12,282.71 L 299.19,285.71 L 296.31,288.67 L 294.93,290.09 L 292.22,292.87 L 290.95,294.19 L 288.45,296.77 L 287.29,297.98 L 285.03,300.34 L 284.00,301.42 L 282.00,303.53 L 281.10,304.47 L 279.39,306.30 L 278.65,307.10 L 277.25,308.62 L 276.67,309.26 L 275.61,310.46 L 275.21,310.92 L 274.51,311.76 L 274.31,312.03 L 274.00,312.49 L 274.00,312.56 L 274.12,312.60 L 274.35,312.45 L 274.92,312.02 L 275.38,311.63 L 276.42,310.73 L 277.10,310.11 L 278.59,308.75 L 279.50,307.90 L 281.44,306.08 L 282.57,305.00 L 284.96,302.72 L 286.31,301.42 L 289.14,298.69 L 290.72,297.16 L 293.98,293.98 L 295.78,292.23 L 297.54,290.50 L 296.80,291.23 L 293.11,294.85 L 291.31,296.61 L 288.01,299.83 L 286.41,301.39 L 283.53,304.19 L 282.15,305.53 L 279.72,307.87 L 278.57,308.98 L 276.62,310.83 L 275.71,311.69 L 274.28,313.03 L 273.63,313.63 L 272.73,314.43 L 272.03,314.97 L 271.93,315.01 L 271.52,315.14 L 271.29,315.21 L 270.62,315.38 L 269.90,315.56 L 268.30,315.93 L 268.57,315.69 L 269.00,315.17 L 269.00,314.89 L 268.80,314.43 L 268.48,314.21 L 268.25,314.14 L 267.17,313.97 L 266.50,314.04 L 265.13,314.27 L 264.50,314.52 L 263.33,315.10 L 263.00,315.50 L 262.55,316.06 L 262.45,316.26 L 262.31,316.61 L 262.37,316.72 L 262.57,316.90 L 262.81,316.94 L 263.37,317.00 L 263.50,317.00 L 262.16,317.29 L 258.60,318.05 L 256.75,318.44 L 252.67,319.29 L 250.58,319.73 L 247.33,320.39 L 247.42,320.36 L 248.29,319.94 L 248.57,319.69 L 249.00,319.17 L 249.00,318.89 L 248.80,318.43 L 248.48,318.21 L 248.25,318.14 L 247.17,317.97 L 246.50,318.04 L 245.13,318.27 L 244.50,318.52 L 243.33,319.10 L 243.00,319.50 L 242.55,320.06 L 242.45,320.26 L 242.31,320.61 L 242.37,320.72 L 242.57,320.90 L 242.81,320.94 L 243.37,321.00 L 243.80,321.00 L 244.83,320.91 L 241.61,321.57 L 236.68,322.56 L 237.57,322.29 L 237.97,322.04 L 238.68,321.53 L 238.90,321.27 L 238.89,321.16 L 238.77,320.94 L 238.59,320.83 L 238.13,320.60 L 237.77,320.46 L 235.92,320.48 L 234.45,320.97 L 233.82,321.41 L 231.55,323.00 L 234.03,322.98 L 235.56,322.79 L 232.03,323.50 L 227.23,324.45 L 223.83,325.12 L 225.88,324.67 L 227.68,324.19 L 228.38,323.96 L 229.62,323.52 L 229.98,323.33 L 230.49,322.99 L 230.42,322.87 L 229.15,322.18 L 227.79,322.00 L 227.02,322.03 L 225.47,322.19 L 224.79,322.39 L 223.53,322.87 L 223.18,323.22 L 222.43,323.67 L 221.72,323.92 L 221.29,324.00 L 219.44,324.23 L 218.48,324.15 L 215.51,324.35 L 213.93,324.93 L 213.43,325.42 L 212.97,325.90 L 212.82,326.09 L 212.58,326.44 L 212.55,326.56 L 212.58,326.79 L 212.72,326.85 L 213.07,326.94 L 213.39,326.94 L 214.12,326.90 L 214.64,326.84 L 215.81,326.67 L 216.57,326.54 L 217.03,326.46 L 215.66,326.72 L 211.38,327.55 L 209.29,327.95 L 208.93,328.02 L 209.59,327.79 L 209.98,327.56 L 210.32,327.32 L 210.40,327.20 L 210.49,326.98 L 210.42,326.88 L 209.18,326.15 L 207.90,325.98 L 207.18,326.05 L 205.70,326.27 L 205.03,326.52 L 203.77,327.09 L 203.36,327.50 L 202.79,328.08 L 202.63,328.28 L 202.39,328.62 L 202.38,328.73 L 202.46,328.91 L 202.61,328.95 L 202.99,329.00 L 203.30,329.00 L 204.12,328.93 L 203.61,329.03 L 200.36,329.63 L 199.71,329.74 L 199.89,329.68 L 200.30,329.40 L 200.39,329.27 L 200.50,329.00 L 200.42,328.88 L 199.07,328.13 L 197.68,327.96 L 196.92,328.03 L 195.43,328.27 L 194.83,328.52 L 193.79,329.10 L 193.64,329.50 L 193.38,330.24 L 193.40,330.47 L 193.53,330.80 L 193.44,330.81 L 193.08,330.87 L 192.55,330.93 L 192.04,330.97 L 191.34,330.97 L 189.46,330.47 L 188.52,330.16 L 186.83,329.29 L 186.09,328.83 L 184.83,327.65 L 184.24,327.03 L 183.31,325.58 L 183.25,325.48 L 183.29,325.52 L 183.83,325.93 L 184.08,325.95 L 184.57,325.87 L 184.73,325.64 L 185.00,325.05 L 185.00,324.56 L 184.71,323.45 L 184.28,322.79 L 184.00,322.55 L 183.43,322.13 L 183.15,322.07 L 182.61,322.06 L 182.41,322.26 L 182.30,322.91 L 182.00,320.67 L 182.00,320.57 L 182.04,320.17 L 182.07,319.93 L 182.17,319.28 L 182.27,318.57 L 182.64,316.46 L 182.84,315.30 L 183.37,312.40 L 183.66,310.86 L 184.33,307.31 L 184.68,305.46 L 185.46,301.39 L 185.87,299.31 L 186.74,294.86 L 187.63,290.35 L 189.54,280.78 L 190.51,275.99 L 192.40,266.70 L 192.87,264.44 L 193.75,260.17 L 194.19,258.09 L 194.99,254.27 L 195.38,252.43 L 196.08,249.19 L 196.42,247.66 L 196.98,245.14 L 197.24,243.99 L 197.64,242.33 L 197.73,241.98 L 197.87,241.46 L 198.03,240.97 L 198.06,240.88 L 198.57,240.27 L 198.90,239.89 L 199.14,239.63 L 199.14,239.64 L 199.37,239.78 L 199.91,240.00 L 200.25,240.00 L 200.81,239.57 L 201.60,238.86 L 202.20,238.30 L 203.52,237.06 L 204.37,236.25 L 206.20,234.50 L 207.29,233.44 L 209.59,231.22 L 210.90,229.93 L 213.65,227.26 L 215.18,225.76 L 218.34,222.66 L 220.06,220.97 L 223.61,217.48 L 225.52,215.60 L 229.42,211.74 L 231.50,209.69 L 235.73,205.50 L 237.97,203.29 L 242.50,198.79 L 244.87,196.44 L 249.68,191.66 L 252.18,189.18 L 257.23,184.15 L 259.84,181.56 L 265.10,176.31 L 267.80,173.61 L 278.80,162.63 L 284.50,156.92 L 301.22,140.21 L 306.60,134.85 L 309.22,132.25 L 314.41,127.08 L 316.92,124.59 L 321.88,119.66 L 324.27,117.29 L 328.99,112.62 L 331.24,110.39 L 335.67,106.01 L 337.77,103.94 L 341.90,99.87 L 343.83,97.97 L 347.62,94.25 L 349.37,92.53 L 352.79,89.18 L 354.35,87.66 L 357.36,84.72 L 358.72,83.41 L 361.31,80.90 L 362.43,79.81 L 364.57,77.76 L 365.46,76.92 L 367.11,75.36 L 367.74,74.77 L 368.88,73.73 L 369.25,73.41 L 369.84,72.92 L 369.92,72.88 L 371.22,72.31 L 371.69,71.99 L 371.74,71.81 L 371.71,71.44 L 371.53,71.18 L 371.05,70.62 L 370.66,70.23 L 369.75,70.08 L 369.25,70.28 L 368.91,70.49 L 368.16,70.98 L 367.66,71.35 L 366.60,72.20 L 365.92,72.77 L 364.47,74.04 L 363.57,74.85 L 361.66,76.60 L 360.51,77.68 L 358.08,79.98 L 356.64,81.36 L 353.62,84.28 L 351.86,86.00 L 348.17,89.60 L 346.05,91.68 L 343.89,93.82 L 342.73,94.96 L 340.37,97.29 L 339.12,98.53 L 336.56,101.06 L 335.20,102.41 L 332.43,105.16 L 330.96,106.62 L 327.97,109.60 L 326.39,111.17 L 323.17,114.38 L 321.47,116.07 L 318.02,119.51 L 316.20,121.33 L 312.50,125.02 L 310.55,126.97 L 306.59,130.92 L 304.52,132.99 L 300.30,137.21 L 298.09,139.42 L 293.60,143.90 L 291.25,146.25 L 286.48,151.02 L 284.03,153.47 L 284.03,153.47 L 369.00,68.50 M 2.12,138.00 L 1.28,138.65 L 0.81,139.68 L 0.62,140.46 L 0.28,142.16 L 0.18,143.22 L 0.02,145.45 L 0.01,146.72 L 0.03,148.23 L 0.07,148.76 L 0.19,149.69 L 0.31,149.96 L 0.57,150.40 L 0.76,150.45 L 1.20,150.48 L 1.50,150.36 L 2.50,149.26 L 2.91,148.07 L 2.97,147.44 L 2.99,146.20 L 2.83,145.75 L 2.64,145.33 L 2.50,145.20 L 2.20,145.00 L 2.00,145.00 L 1.29,144.56 L 1.00,143.91 L 1.00,143.50 L 1.29,142.44 L 1.72,142.00 L 2.00,142.00 L 2.71,141.41 L 3.00,140.55 L 3.00,140.00 L 2.74,138.59 L 2.36,138.00 M 468.99,119.48 L 468.46,119.97 L 467.70,120.61 L 467.06,121.00 L 467.04,121.00 L 467.03,120.99 L 467.59,120.66 L 468.27,120.13 L 468.73,119.72 L 469.37,119.14 M 254.92,114.35 L 254.74,114.98 L 254.15,116.31 L 253.82,116.99 L 252.96,118.36 L 252.03,119.73 L 251.64,120.15 L 254.06,116.34 L 255.00,113.90 M 459.39,1.18 L 459.34,1.28 L 459.34,1.55 L 459.46,1.76 L 459.77,2.23 L 460.05,2.56 L 461.72,3.60 L 463.21,3.97 L 463.92,3.91 L 465.63,3.86 L 466.72,3.99 L 467.43,4.18 L 468.19,4.40 L 468.65,4.55 L 469.64,4.89 L 470.24,5.11 L 471.51,5.58 L 472.29,5.88 L 473.94,6.51 L 474.93,6.89 L 477.08,7.67 L 478.02,7.95 L 479.81,8.44 L 480.55,8.58 L 481.92,8.80 L 482.43,8.82 L 483.34,8.79 L 483.59,8.69 L 483.97,8.44 L 483.94,8.23 L 483.73,7.78 L 483.38,7.48 L 483.04,7.22 L 483.83,7.62 L 486.02,8.82 L 490.16,11.71 L 491.35,12.75 L 491.23,13.12 L 491.15,13.52 L 491.29,14.99 L 491.75,15.84 L 492.10,16.06 L 493.15,16.58 L 493.51,16.59 L 494.14,16.48 L 494.27,16.24 L 494.39,15.65 L 494.26,15.29 L 495.97,16.77 L 498.15,18.95 L 501.84,23.70 L 503.58,26.13 L 506.37,31.29 L 507.66,33.92 L 509.14,38.22 L 508.72,37.89 L 508.50,38.00 L 507.90,38.79 L 507.76,39.59 L 507.86,40.00 L 508.23,42.26 L 508.43,44.24 L 508.50,45.40 L 508.73,50.40 L 508.74,53.06 L 508.74,55.72 L 508.71,56.99 L 508.64,59.48 L 508.58,60.58 L 508.44,62.69 L 508.34,63.53 L 508.12,65.06 L 507.99,65.54 L 507.37,68.96 L 507.33,69.92 L 507.37,70.29 L 507.47,70.96 L 507.58,71.14 L 507.94,71.55 L 508.13,71.57 L 508.51,71.47 L 508.70,71.24 L 509.09,70.68 L 509.29,70.24 L 509.67,69.26 L 509.85,68.63 L 510.22,67.29 L 510.39,66.50 L 510.71,64.85 L 510.86,63.93 L 511.38,60.00 L 511.52,57.78 L 511.54,50.86 L 511.30,47.55 L 511.34,47.84 L 511.71,50.70 L 511.74,56.48 L 511.64,59.38 L 510.72,65.15 L 510.14,68.02 L 508.26,73.68 L 504.90,80.75 L 504.79,80.32 L 504.58,80.19 L 504.04,80.00 L 503.61,80.00 L 502.65,80.35 L 502.06,80.89 L 501.81,81.27 L 501.37,82.10 L 501.22,82.58 L 501.00,83.57 L 501.00,84.08 L 501.07,84.69 L 501.20,84.83 L 501.53,85.00 L 501.76,84.92 L 502.14,84.74 L 502.13,84.75 L 501.56,85.42 L 500.16,87.01 L 499.43,87.85 L 497.74,89.71 L 496.87,90.68 L 494.96,92.76 L 493.99,93.82 L 491.92,96.04 L 489.82,98.29 L 485.39,102.96 L 483.49,104.95 L 486.07,102.24 L 487.72,100.46 L 489.35,98.71 L 490.09,97.89 L 491.55,96.30 L 492.19,95.58 L 493.41,94.20 L 493.92,93.60 L 494.86,92.49 L 495.21,92.05 L 495.82,91.27 L 495.98,91.02 L 496.19,90.62 L 496.13,90.58 L 495.31,90.68 L 494.49,91.12 L 493.98,91.48 L 492.92,92.29 L 492.34,92.79 L 491.15,93.85 L 490.56,94.42 L 488.24,96.83 L 487.39,97.93 L 486.62,98.98 L 486.38,99.42 L 486.00,100.23 L 486.00,100.50 L 485.26,101.88 L 484.17,102.74 L 483.48,103.01 L 481.42,104.44 L 480.25,105.83 L 479.98,106.54 L 479.05,108.21 L 478.72,108.53 L 478.58,108.60 L 478.29,108.68 L 478.18,108.61 L 477.46,108.76 L 476.64,109.20 L 476.10,109.56 L 474.95,110.36 L 474.30,110.86 L 472.96,111.94 L 472.26,112.55 L 470.06,114.35 L 468.75,115.29 L 468.19,115.61 L 467.15,116.17 L 466.75,116.29 L 466.04,116.43 L 465.84,116.32 L 465.52,116.07 L 465.14,115.73 L 464.86,115.47 L 464.26,114.91 L 463.88,114.55 L 463.07,113.77 L 462.60,113.31 L 460.49,111.27 L 459.18,109.97 L 456.39,107.22 L 454.76,105.61 L 451.37,102.25 L 449.49,100.37 L 445.60,96.49 L 443.51,94.39 L 439.23,90.10 L 436.97,87.83 L 432.38,83.21 L 430.01,80.82 L 395.53,46.00 L 410.63,30.75 L 416.55,24.68 L 418.34,22.79 L 419.17,21.91 L 420.78,20.20 L 421.49,19.42 L 422.86,17.93 L 423.44,17.28 L 424.52,16.05 L 424.94,15.55 L 425.71,14.63 L 425.95,14.30 L 426.35,13.74 L 426.39,13.61 L 427.04,12.46 L 427.51,12.17 L 427.68,12.35 L 428.54,12.45 L 429.34,12.13 L 429.73,11.81 L 430.80,11.10 L 431.95,10.43 L 432.68,10.03 L 435.98,8.28 L 437.82,7.38 L 440.41,6.04 L 441.69,5.29 L 442.09,5.00 L 442.73,4.48 L 442.79,4.32 L 442.72,4.07 L 442.41,4.06 L 441.09,4.29 L 439.93,4.64 L 440.41,4.43 L 442.86,3.54 L 447.82,2.31 L 450.30,1.79 L 452.47,1.57 L 452.45,1.60 L 452.41,1.86 L 452.50,2.00 L 453.04,2.52 L 453.51,2.71 L 454.53,3.00 L 455.06,3.00 L 456.43,2.71 L 457.00,2.27 L 457.00,2.00 L 456.25,1.29 L 456.01,1.23 L 457.78,1.12 M 428.99,83.46 L 434.10,88.57 L 436.54,91.00 L 441.34,95.80 L 443.59,98.04 L 448.00,102.42 L 450.01,104.41 L 453.07,107.44 L 450.02,104.43 L 448.01,102.43 L 443.60,98.06 L 441.35,95.82 L 436.55,91.04 L 434.10,88.60 L 429.00,83.50 L 391.52,46.01 L 391.55,45.98 M 41.82,90.40 L 41.51,90.49 L 40.12,91.03 L 39.34,91.47 L 36.50,93.10 L 39.50,92.47 L 41.54,91.97 L 42.45,91.66 L 42.70,91.50 L 43.07,91.18 L 43.08,91.00 L 42.97,90.64 L 42.76,90.42 L 42.31,90.33 M 425.18,13.29 L 423.28,14.95 L 422.20,15.94 L 419.95,18.02 L 418.67,19.23 L 415.99,21.79 L 414.47,23.27 L 411.30,26.37 L 409.50,28.15 L 397.85,39.66 L 407.51,29.97 L 408.62,28.85 L 410.70,26.78 L 411.72,25.77 L 413.63,23.89 L 415.50,22.06 L 418.79,18.95 L 420.36,17.47 L 423.17,14.98 L 424.52,13.80 L 425.46,13.05 M 470.02,2.40 L 472.42,2.93 L 473.77,3.39 L 471.56,2.78 L 469.78,2.37 L 469.13,2.24 Z" fill="rgba(0,0,0,1)"/>
<path d="M 50.00,510.50 L 50.00,510.09 L 50.41,509.44 L 51.39,509.00 L 51.78,509.00 L 52.55,509.44 L 53.36,510.50 L 53.56,511.01 L 53.31,511.63 L 51.97,512.00 L 51.43,512.00 L 50.58,511.56 L 50.22,511.29 M 374.00,511.57 L 374.00,511.21 L 374.60,510.40 L 374.98,510.00 L 376.11,509.24 L 376.71,508.88 L 378.08,508.35 L 380.07,508.00 L 380.59,508.00 L 381.40,508.07 L 381.78,508.11 L 382.31,508.25 L 382.54,508.33 L 382.79,508.54 L 382.89,508.65 L 382.87,508.91 L 382.82,509.04 L 382.53,509.34 L 382.35,509.49 L 381.79,509.82 L 379.13,510.84 L 378.09,511.16 L 376.56,511.58 L 375.89,511.76 L 375.00,511.92 L 374.62,511.98 L 374.21,511.91 L 374.06,511.85 M 419.00,474.69 L 419.00,474.25 L 419.43,473.12 L 419.70,472.54 L 420.44,471.45 L 420.82,470.94 L 421.59,470.26 L 422.46,470.12 L 422.55,470.22 L 422.61,470.60 L 422.62,470.81 L 422.54,471.37 L 422.42,471.96 L 421.86,473.35 L 421.56,474.04 L 420.83,475.19 L 420.66,475.44 L 420.31,475.78 L 419.84,476.00 L 419.61,476.00 L 419.25,475.62 L 419.09,475.38 M 58.33,472.31 L 57.74,472.19 L 56.63,471.55 L 55.57,470.32 L 55.45,470.02 L 55.38,469.59 L 55.38,469.41 L 55.56,469.21 L 55.69,469.13 L 56.16,469.14 L 57.24,469.37 L 57.31,469.39 L 58.27,469.43 L 58.87,469.45 L 60.84,469.49 L 61.95,469.51 L 64.87,469.55 L 66.45,469.57 L 70.29,469.60 L 72.32,469.62 L 77.01,469.66 L 79.46,469.67 L 84.95,469.71 L 87.79,469.72 L 94.03,469.75 L 97.23,469.77 L 104.17,469.80 L 107.71,469.81 L 115.29,469.84 L 119.15,469.85 L 127.31,469.87 L 131.45,469.89 L 140.14,469.91 L 144.55,469.92 L 153.72,469.93 L 158.36,469.94 L 167.96,469.95 L 172.81,469.96 L 182.78,469.97 L 187.80,469.98 L 198.09,469.98 L 213.82,469.99 L 218.11,469.99 L 226.33,469.99 L 230.39,469.99 L 238.16,469.99 L 241.99,469.99 L 249.32,469.99 L 252.93,470.00 L 259.83,470.00 L 263.22,470.00 L 269.71,470.01 L 272.90,470.01 L 278.98,470.02 L 281.97,470.02 L 287.65,470.03 L 290.45,470.03 L 295.76,470.04 L 298.37,470.05 L 303.31,470.06 L 305.73,470.06 L 310.32,470.07 L 312.57,470.08 L 316.81,470.10 L 318.89,470.10 L 322.81,470.12 L 324.73,470.13 L 328.32,470.15 L 330.08,470.16 L 333.38,470.18 L 334.99,470.19 L 337.99,470.21 L 339.45,470.22 L 342.17,470.25 L 344.83,470.27 L 349.35,470.33 L 351.48,470.37 L 355.04,470.44 L 356.71,470.48 L 359.42,470.56 L 360.67,470.60 L 362.62,470.70 L 363.50,470.75 L 364.79,470.87 L 365.36,470.92 L 366.09,471.05 L 366.39,471.12 L 366.65,471.26 L 366.64,471.50 L 366.56,471.58 L 366.17,471.73 L 365.93,471.81 L 365.16,471.94 L 364.71,472.01 L 363.46,472.13 L 362.76,472.18 L 360.92,472.29 L 359.92,472.34 L 357.41,472.43 L 356.06,472.47 L 352.77,472.54 L 351.02,472.58 L 346.87,472.64 L 344.68,472.67 L 339.56,472.72 L 338.21,472.73 L 335.32,472.76 L 333.85,472.77 L 330.68,472.79 L 329.07,472.79 L 325.62,472.81 L 323.86,472.82 L 320.11,472.83 L 318.20,472.84 L 314.14,472.85 L 312.07,472.86 L 307.69,472.87 L 305.46,472.87 L 300.74,472.88 L 298.34,472.88 L 293.28,472.89 L 290.70,472.89 L 285.28,472.89 L 282.52,472.89 L 276.73,472.90 L 273.79,472.90 L 267.61,472.90 L 264.47,472.90 L 257.90,472.89 L 254.57,472.89 L 247.59,472.89 L 244.05,472.89 L 236.65,472.88 L 232.89,472.88 L 225.06,472.87 L 212.82,472.86 L 207.59,472.86 L 197.29,472.85 L 192.18,472.84 L 182.18,472.83 L 177.22,472.82 L 167.56,472.80 L 162.77,472.80 L 153.51,472.78 L 148.93,472.77 L 140.11,472.75 L 135.76,472.74 L 127.44,472.72 L 123.35,472.70 L 115.58,472.68 L 111.77,472.67 L 104.61,472.64 L 101.11,472.63 L 94.61,472.60 L 91.44,472.59 L 85.65,472.56 L 82.85,472.55 L 77.82,472.52 L 75.41,472.51 L 71.19,472.48 L 69.20,472.47 L 65.85,472.44 L 64.30,472.42 L 61.88,472.39 L 60.79,472.38 L 59.35,472.35 L 58.75,472.33 M 371.00,468.91 L 371.00,468.66 L 371.29,468.27 L 372.00,468.00 L 372.13,468.00 L 372.70,467.71 L 373.02,467.53 L 373.88,466.94 L 377.00,464.38 L 377.85,463.61 L 379.06,462.59 L 379.60,462.16 L 380.28,461.77 L 380.57,461.65 L 380.85,461.85 L 381.00,462.73 L 381.00,463.25 L 380.60,464.33 L 380.33,464.87 L 379.47,465.91 L 378.98,466.42 L 377.73,467.34 L 375.50,468.50 L 374.71,468.82 L 373.46,469.24 L 372.89,469.41 L 372.06,469.55 L 371.70,469.58 L 371.26,469.44 L 371.08,469.33 M 422.88,465.64 L 423.19,465.27 L 423.50,463.82 L 423.42,461.34 L 423.21,460.32 L 423.35,458.78 L 424.41,457.07 L 424.75,456.79 L 425.23,456.46 L 425.44,456.34 L 425.71,456.33 L 425.83,456.37 L 425.94,456.71 L 425.99,457.63 L 425.99,458.46 L 425.65,460.49 L 425.44,461.52 L 424.82,463.56 L 424.50,464.52 L 423.79,466.00 L 423.62,466.31 L 423.28,466.73 L 422.83,467.00 L 422.46,467.00 L 422.29,466.67 L 422.29,466.45 M 1.58,463.13 L 1.50,463.01 L 1.32,462.22 L 1.22,461.75 L 1.00,460.41 L 0.89,459.68 L 0.67,457.95 L 0.37,455.10 L 0.30,454.29 L 0.18,452.93 L 0.13,452.29 L 0.06,451.25 L 0.04,450.77 L 0.03,450.03 L 0.03,449.68 L 0.09,449.19 L 0.16,448.75 L 0.52,448.46 L 1.44,448.61 L 1.79,448.75 L 2.29,449.17 L 2.51,449.42 L 2.77,450.20 L 2.87,450.64 L 2.93,451.94 L 2.83,454.64 L 2.79,455.38 L 2.76,456.72 L 2.76,457.36 L 2.82,458.43 L 2.86,458.91 L 2.99,459.58 L 3.25,460.00 L 3.46,460.00 L 3.78,460.59 L 4.00,462.00 L 4.00,462.51 L 3.76,463.26 L 3.61,463.58 L 3.16,463.92 L 2.91,464.03 L 2.37,463.90 L 2.10,463.78 M 40.61,452.42 L 40.59,452.36 L 40.55,451.47 L 40.52,450.90 L 40.49,449.00 L 40.47,447.94 L 40.43,445.10 L 40.41,443.56 L 40.37,439.83 L 40.35,437.85 L 40.32,433.28 L 40.30,430.89 L 40.27,425.52 L 40.25,422.74 L 40.22,416.64 L 40.21,413.50 L 40.18,406.71 L 40.16,403.24 L 40.14,395.82 L 40.13,392.03 L 40.10,384.03 L 40.09,379.96 L 40.07,371.43 L 40.06,367.11 L 40.05,358.10 L 40.04,353.55 L 40.03,344.12 L 40.02,339.36 L 40.01,329.57 L 40.01,324.63 L 40.00,314.51 L 40.00,299.04 L 40.00,294.86 L 40.00,286.84 L 40.00,282.88 L 40.00,275.30 L 40.00,271.56 L 40.01,264.40 L 40.01,260.87 L 40.01,254.12 L 40.01,250.80 L 40.02,244.45 L 40.02,241.32 L 40.03,235.36 L 40.03,232.43 L 40.04,226.84 L 40.04,224.09 L 40.05,218.87 L 40.05,216.31 L 40.06,211.44 L 40.07,209.05 L 40.08,204.52 L 40.09,202.29 L 40.10,198.09 L 40.11,196.03 L 40.13,192.15 L 40.13,190.24 L 40.15,186.66 L 40.16,184.91 L 40.18,181.62 L 40.19,180.01 L 40.22,177.00 L 40.23,175.53 L 40.25,172.79 L 40.28,170.11 L 40.34,165.51 L 40.37,163.33 L 40.44,159.65 L 40.48,157.91 L 40.57,155.05 L 40.61,153.71 L 40.71,151.57 L 40.76,150.58 L 40.87,149.07 L 40.93,148.39 L 41.06,147.41 L 41.12,146.97 L 41.27,146.43 L 41.50,146.00 L 41.58,145.93 L 41.74,146.03 L 41.81,146.13 L 41.95,146.64 L 42.01,146.96 L 42.13,147.98 L 42.19,148.56 L 42.30,150.19 L 42.35,151.09 L 42.44,153.42 L 42.48,154.69 L 42.56,157.83 L 42.60,159.52 L 42.66,163.57 L 42.69,165.72 L 42.75,170.78 L 42.76,172.11 L 42.79,174.98 L 42.80,176.45 L 42.82,179.61 L 42.83,181.22 L 42.85,184.68 L 42.86,186.44 L 42.88,190.21 L 42.88,192.13 L 42.90,196.22 L 42.91,198.30 L 42.92,202.73 L 42.93,204.98 L 42.94,209.76 L 42.94,212.19 L 42.95,217.32 L 42.96,219.93 L 42.97,225.44 L 42.97,228.24 L 42.98,234.13 L 42.98,237.13 L 42.98,243.42 L 42.99,246.61 L 42.99,253.31 L 42.99,256.72 L 42.99,263.84 L 43.00,267.45 L 43.00,275.01 L 43.00,278.85 L 43.00,286.85 L 43.00,299.38 L 43.00,305.01 L 43.00,315.96 L 42.99,321.38 L 42.98,331.88 L 42.98,337.07 L 42.96,347.09 L 42.95,352.04 L 42.93,361.53 L 42.92,366.21 L 42.90,375.15 L 42.88,379.54 L 42.85,387.88 L 42.84,391.97 L 42.80,399.67 L 42.79,403.44 L 42.75,410.46 L 42.73,413.89 L 42.69,420.20 L 42.66,423.26 L 42.62,428.82 L 42.59,431.51 L 42.54,436.28 L 42.52,438.56 L 42.47,442.51 L 42.44,444.37 L 42.38,447.45 L 42.35,448.88 L 42.29,451.05 L 42.26,452.02 L 42.20,453.25 L 42.11,454.00 L 41.86,454.00 L 41.30,453.54 L 41.03,453.25 M 424.00,367.11 L 424.00,362.34 L 424.00,353.55 L 424.00,349.28 L 424.01,341.46 L 424.01,337.66 L 424.03,330.74 L 424.03,327.39 L 424.05,321.32 L 424.06,318.38 L 424.08,313.11 L 424.10,310.56 L 424.13,306.03 L 424.14,303.85 L 424.18,300.00 L 424.21,298.16 L 424.26,294.94 L 424.28,293.41 L 424.34,290.78 L 424.37,289.52 L 424.45,287.41 L 424.48,286.42 L 424.57,284.78 L 424.61,284.01 L 424.71,282.79 L 424.76,282.22 L 424.87,281.36 L 424.93,280.97 L 425.06,280.41 L 425.50,279.64 L 425.67,279.57 L 425.95,280.05 L 426.01,280.24 L 426.13,280.84 L 426.19,281.18 L 426.29,282.12 L 426.34,282.64 L 426.44,283.99 L 426.48,284.72 L 426.56,286.52 L 426.59,287.48 L 426.66,289.79 L 426.69,291.01 L 426.75,293.89 L 426.77,295.41 L 426.82,298.91 L 426.84,300.74 L 426.88,304.92 L 426.89,307.10 L 426.92,312.01 L 426.93,314.56 L 426.95,320.26 L 426.96,323.21 L 426.98,329.75 L 426.98,333.13 L 426.99,340.57 L 426.99,344.41 L 427.00,352.80 L 427.00,366.53 L 427.00,371.35 L 427.00,380.22 L 427.00,384.53 L 426.99,392.42 L 426.99,396.25 L 426.97,403.23 L 426.97,406.61 L 426.95,412.72 L 426.94,415.67 L 426.92,420.98 L 426.91,423.53 L 426.87,428.08 L 426.86,430.27 L 426.82,434.12 L 426.80,435.96 L 426.75,439.17 L 426.72,440.70 L 426.66,443.32 L 426.63,444.56 L 426.56,446.65 L 426.52,447.63 L 426.43,449.24 L 426.39,449.99 L 426.29,451.17 L 426.24,451.72 L 426.13,452.53 L 426.07,452.90 L 425.94,453.40 L 425.50,454.00 L 425.33,454.00 L 425.06,453.41 L 424.99,453.19 L 424.87,452.54 L 424.81,452.18 L 424.71,451.19 L 424.66,450.65 L 424.57,449.27 L 424.52,448.52 L 424.44,446.70 L 424.41,445.72 L 424.34,443.39 L 424.31,442.16 L 424.25,439.27 L 424.23,437.75 L 424.18,434.25 L 424.16,432.42 L 424.13,428.25 L 424.11,426.08 L 424.08,421.19 L 424.07,418.65 L 424.05,412.99 L 424.04,410.05 L 424.03,403.56 L 424.02,400.20 L 424.01,392.83 L 424.01,389.02 L 424.00,380.70 L 424.00,376.42 M 193.64,329.50 L 193.79,329.10 L 194.83,328.52 L 195.43,328.27 L 196.92,328.03 L 197.68,327.96 L 199.07,328.13 L 200.42,328.88 L 200.50,329.00 L 200.39,329.27 L 200.30,329.40 L 199.89,329.68 L 197.86,330.38 L 196.75,330.60 L 195.24,330.85 L 194.58,330.94 L 193.84,330.90 L 193.55,330.84 L 193.40,330.47 L 193.38,330.24 M 203.36,327.50 L 203.77,327.09 L 205.03,326.52 L 205.70,326.27 L 207.18,326.05 L 207.90,325.98 L 209.18,326.15 L 210.42,326.88 L 210.49,326.98 L 210.40,327.20 L 210.32,327.32 L 209.98,327.56 L 209.59,327.79 L 208.28,328.25 L 207.56,328.46 L 205.86,328.78 L 203.30,329.00 L 202.99,329.00 L 202.61,328.95 L 202.46,328.91 L 202.38,328.73 L 202.39,328.62 L 202.63,328.28 L 202.79,328.08 M 213.43,325.42 L 213.93,324.93 L 215.51,324.35 L 218.48,324.15 L 219.44,324.23 L 221.29,324.00 L 221.72,323.92 L 222.43,323.67 L 223.18,323.22 L 223.53,322.87 L 224.79,322.39 L 225.47,322.19 L 227.02,322.03 L 227.79,322.00 L 229.15,322.18 L 230.42,322.87 L 230.49,322.99 L 229.98,323.33 L 229.62,323.52 L 228.38,323.96 L 227.68,324.19 L 225.88,324.67 L 222.73,325.37 L 221.42,325.63 L 219.23,326.05 L 218.21,326.25 L 216.57,326.54 L 215.81,326.67 L 214.64,326.84 L 214.12,326.90 L 213.39,326.94 L 213.07,326.94 L 212.72,326.85 L 212.58,326.79 L 212.55,326.56 L 212.58,326.44 L 212.82,326.09 L 212.97,325.90 M 182.58,324.36 L 182.41,323.91 L 182.27,323.06 L 182.41,322.26 L 182.61,322.06 L 183.15,322.07 L 183.43,322.13 L 184.00,322.55 L 184.28,322.79 L 184.71,323.45 L 185.00,324.56 L 185.00,325.05 L 184.73,325.64 L 184.57,325.87 L 184.08,325.95 L 183.83,325.93 L 183.29,325.52 L 183.03,325.25 M 233.82,321.41 L 234.45,320.97 L 235.92,320.48 L 237.77,320.46 L 238.13,320.60 L 238.59,320.83 L 238.77,320.94 L 238.89,321.16 L 238.90,321.27 L 238.68,321.53 L 237.97,322.04 L 237.57,322.29 L 236.21,322.70 L 234.03,322.98 L 231.55,323.00 L 233.82,321.41 M 243.00,319.50 L 243.33,319.10 L 244.50,318.52 L 245.13,318.27 L 246.50,318.04 L 247.17,317.97 L 248.25,318.14 L 248.48,318.21 L 248.80,318.43 L 249.00,318.89 L 249.00,319.17 L 248.57,319.69 L 248.29,319.94 L 247.42,320.36 L 246.94,320.55 L 245.76,320.83 L 243.80,321.00 L 243.37,321.00 L 242.81,320.94 L 242.57,320.90 L 242.37,320.72 L 242.31,320.61 L 242.45,320.26 L 242.55,320.06 M 263.00,315.50 L 263.33,315.10 L 264.50,314.52 L 265.13,314.27 L 266.50,314.04 L 267.17,313.97 L 268.25,314.14 L 268.48,314.21 L 268.80,314.43 L 269.00,314.89 L 269.00,315.17 L 268.57,315.69 L 268.29,315.94 L 267.42,316.36 L 266.94,316.55 L 265.76,316.83 L 263.80,317.00 L 263.37,317.00 L 262.81,316.94 L 262.57,316.90 L 262.37,316.72 L 262.31,316.61 L 262.45,316.26 L 262.55,316.06 M 274.00,312.56 L 274.00,312.49 L 274.31,312.03 L 274.51,311.76 L 275.21,310.92 L 275.61,310.46 L 276.67,309.26 L 277.25,308.62 L 278.65,307.10 L 279.39,306.30 L 281.10,304.47 L 282.00,303.53 L 284.00,301.42 L 285.03,300.34 L 287.29,297.98 L 288.45,296.77 L 290.95,294.19 L 292.22,292.87 L 294.93,290.09 L 296.31,288.67 L 299.19,285.71 L 302.12,282.71 L 308.42,276.31 L 311.62,273.05 L 318.32,266.28 L 321.70,262.87 L 328.58,255.95 L 332.03,252.49 L 338.90,245.62 L 342.31,242.21 L 348.96,235.61 L 352.23,232.36 L 358.45,226.22 L 361.49,223.23 L 367.07,217.76 L 368.41,216.45 L 370.95,213.98 L 372.19,212.78 L 374.50,210.56 L 375.62,209.48 L 377.67,207.52 L 378.67,206.57 L 380.44,204.91 L 381.28,204.11 L 382.75,202.76 L 383.44,202.13 L 384.57,201.13 L 385.09,200.67 L 385.86,200.03 L 386.59,199.53 L 387.46,199.11 L 388.97,197.91 L 389.31,197.60 L 389.81,196.98 L 390.26,196.12 L 390.33,195.86 L 390.68,195.28 L 390.88,194.98 L 391.45,194.38 L 393.62,192.85 L 394.41,192.48 L 396.04,191.06 L 397.83,188.68 L 398.20,187.91 L 399.26,186.53 L 400.84,185.30 L 401.13,185.20 L 402.07,184.57 L 402.59,184.20 L 403.88,183.14 L 405.22,182.01 L 408.29,179.07 L 409.04,178.34 L 410.45,176.88 L 411.12,176.17 L 412.27,174.88 L 412.80,174.27 L 413.53,173.29 L 414.00,172.34 L 414.00,172.25 L 414.29,171.79 L 414.48,171.52 L 415.12,170.71 L 415.48,170.27 L 416.43,169.15 L 416.94,168.56 L 418.16,167.18 L 418.80,166.47 L 420.26,164.87 L 421.01,164.05 L 422.66,162.28 L 428.16,156.51 L 429.41,155.22 L 431.66,152.93 L 432.74,151.83 L 434.66,149.93 L 435.58,149.02 L 437.18,147.48 L 437.95,146.76 L 439.25,145.58 L 439.86,145.04 L 440.88,144.20 L 441.35,143.83 L 442.09,143.32 L 442.43,143.11 L 442.92,142.92 L 443.38,142.98 L 443.43,143.03 L 443.22,143.41 L 443.07,143.65 L 442.46,144.43 L 442.10,144.87 L 441.07,146.05 L 440.51,146.69 L 439.05,148.29 L 438.26,149.14 L 436.37,151.16 L 435.36,152.23 L 433.02,154.69 L 431.79,155.97 L 428.98,158.88 L 427.52,160.39 L 424.24,163.76 L 422.54,165.50 L 418.79,169.33 L 416.85,171.31 L 412.60,175.62 L 410.41,177.84 L 405.67,182.64 L 403.23,185.11 L 397.97,190.41 L 395.27,193.13 L 389.49,198.94 L 386.53,201.91 L 380.22,208.25 L 376.99,211.49 L 370.13,218.36 L 359.22,229.27 L 355.75,232.75 L 349.11,239.38 L 345.84,242.64 L 339.61,248.86 L 336.55,251.91 L 330.73,257.70 L 327.87,260.54 L 322.47,265.91 L 319.82,268.53 L 314.84,273.47 L 312.40,275.88 L 307.84,280.38 L 305.62,282.57 L 301.49,286.63 L 299.47,288.61 L 295.78,292.23 L 293.98,293.98 L 290.72,297.16 L 289.14,298.69 L 286.31,301.42 L 284.96,302.72 L 282.57,305.00 L 281.44,306.08 L 279.50,307.90 L 278.59,308.75 L 277.10,310.11 L 276.42,310.73 L 275.38,311.63 L 274.92,312.02 L 274.35,312.45 L 274.12,312.60 M 391.48,262.40 L 392.04,261.91 L 393.07,261.11 L 393.57,260.75 L 394.42,260.24 L 394.81,260.02 L 395.38,259.85 L 395.84,260.02 L 395.91,260.23 L 395.83,260.77 L 395.76,261.05 L 395.43,261.68 L 395.05,262.32 L 393.80,263.65 L 393.13,264.29 L 391.62,265.29 L 389.58,265.96 L 389.14,265.95 L 388.66,265.81 L 388.49,265.70 L 388.61,265.28 L 388.75,265.02 L 389.52,264.21 L 389.99,263.74 M 400.25,258.75 L 400.31,258.56 L 400.76,258.23 L 401.03,258.08 L 401.85,257.84 L 402.31,257.73 L 403.46,257.59 L 405.50,257.50 L 406.24,257.50 L 407.54,257.59 L 408.15,257.64 L 409.15,257.84 L 409.60,257.94 L 410.24,258.23 L 410.75,258.75 L 410.83,258.98 L 410.63,259.33 L 410.47,259.49 L 409.77,259.71 L 409.35,259.81 L 408.09,259.93 L 405.50,260.00 L 404.48,260.00 L 402.91,259.93 L 402.21,259.88 L 401.23,259.71 L 400.81,259.61 L 400.37,259.33 L 400.21,259.17 M 199.00,239.25 L 199.00,239.22 L 199.44,238.73 L 199.73,238.41 L 200.73,237.36 L 201.30,236.77 L 202.84,235.19 L 203.67,234.33 L 205.71,232.25 L 206.78,231.15 L 209.30,228.59 L 210.61,227.26 L 213.56,224.26 L 215.10,222.71 L 218.47,219.30 L 220.20,217.55 L 223.96,213.75 L 225.89,211.81 L 230.01,207.66 L 232.11,205.55 L 236.55,201.07 L 238.82,198.80 L 243.56,194.03 L 245.97,191.61 L 250.99,186.57 L 253.53,184.02 L 258.78,178.75 L 261.44,176.08 L 266.91,170.60 L 283.98,153.52 L 286.48,151.02 L 291.25,146.25 L 293.60,143.90 L 298.09,139.42 L 300.30,137.21 L 304.52,132.99 L 306.59,130.92 L 310.55,126.97 L 312.50,125.02 L 316.20,121.33 L 318.02,119.51 L 321.47,116.07 L 323.17,114.38 L 326.39,111.17 L 327.97,109.60 L 330.96,106.62 L 332.43,105.16 L 335.20,102.41 L 336.56,101.06 L 339.12,98.53 L 340.37,97.29 L 342.73,94.96 L 343.89,93.82 L 346.05,91.68 L 348.17,89.60 L 351.86,86.00 L 353.62,84.28 L 356.64,81.36 L 358.08,79.98 L 360.51,77.68 L 361.66,76.60 L 363.57,74.85 L 364.47,74.04 L 365.92,72.77 L 366.60,72.20 L 367.66,71.35 L 368.16,70.98 L 368.91,70.49 L 369.25,70.28 L 369.75,70.08 L 370.66,70.23 L 371.05,70.62 L 371.53,71.18 L 371.71,71.44 L 371.74,71.81 L 371.69,71.99 L 371.22,72.31 L 369.92,72.88 L 369.84,72.92 L 369.25,73.41 L 368.88,73.73 L 367.74,74.77 L 367.11,75.36 L 365.46,76.92 L 364.57,77.76 L 362.43,79.81 L 361.31,80.90 L 358.72,83.41 L 357.36,84.72 L 354.35,87.66 L 352.79,89.18 L 349.37,92.53 L 347.62,94.25 L 343.83,97.97 L 341.90,99.87 L 337.77,103.94 L 335.67,106.01 L 331.24,110.39 L 328.99,112.62 L 324.27,117.29 L 321.88,119.66 L 316.92,124.59 L 314.41,127.08 L 309.22,132.25 L 306.60,134.85 L 301.22,140.21 L 284.50,156.92 L 278.80,162.63 L 267.80,173.61 L 265.10,176.31 L 259.84,181.56 L 257.23,184.15 L 252.18,189.18 L 249.68,191.66 L 244.87,196.44 L 242.50,198.79 L 237.97,203.29 L 235.73,205.50 L 231.50,209.69 L 229.42,211.74 L 225.52,215.60 L 223.61,217.48 L 220.06,220.97 L 218.34,222.66 L 215.18,225.76 L 213.65,227.26 L 210.90,229.93 L 209.59,231.22 L 207.29,233.44 L 206.20,234.50 L 204.37,236.25 L 203.52,237.06 L 202.20,238.30 L 201.60,238.86 L 200.81,239.57 L 200.25,240.00 L 199.91,240.00 L 199.37,239.78 L 199.14,239.64 M 0.01,146.72 L 0.02,145.45 L 0.18,143.22 L 0.28,142.16 L 0.62,140.46 L 0.81,139.68 L 1.28,138.65 L 2.12,138.00 L 2.36,138.00 L 2.74,138.59 L 3.00,140.00 L 3.00,140.55 L 2.71,141.41 L 2.00,142.00 L 1.72,142.00 L 1.29,142.44 L 1.00,143.50 L 1.00,143.91 L 1.29,144.56 L 2.00,145.00 L 2.20,145.00 L 2.50,145.20 L 2.64,145.33 L 2.83,145.75 L 2.99,146.20 L 2.97,147.44 L 2.91,148.07 L 2.50,149.26 L 1.50,150.36 L 1.20,150.48 L 0.76,150.45 L 0.57,150.40 L 0.31,149.96 L 0.19,149.69 L 0.07,148.76 L 0.03,148.23 M 46.71,136.38 L 46.40,136.06 L 46.37,135.25 L 46.46,134.82 L 47.24,133.80 L 47.73,133.26 L 49.28,132.04 L 52.47,130.02 L 53.79,129.26 L 56.03,128.17 L 57.08,127.70 L 58.72,127.19 L 59.45,127.01 L 60.41,127.10 L 61.00,127.92 L 61.00,128.05 L 60.72,128.37 L 60.53,128.54 L 59.95,128.92 L 57.41,130.03 L 56.92,130.19 L 55.76,130.71 L 55.17,131.00 L 53.92,131.71 L 50.56,134.08 L 49.66,134.87 L 48.08,135.94 L 47.73,136.15 L 47.19,136.38 L 46.96,136.45 M 233.64,127.50 L 233.73,127.27 L 234.11,126.88 L 234.33,126.70 L 234.96,126.41 L 237.53,126.00 L 238.44,126.00 L 240.33,125.82 L 242.42,125.39 L 242.85,125.23 L 243.54,125.26 L 244.00,125.80 L 244.00,125.95 L 243.76,126.28 L 243.61,126.45 L 243.11,126.81 L 242.56,127.16 L 240.91,127.85 L 240.04,128.18 L 238.10,128.67 L 235.38,129.00 L 234.97,129.00 L 234.36,128.92 L 234.08,128.86 L 233.74,128.65 L 233.60,128.53 L 233.51,128.18 L 233.49,127.99 M 245.00,124.15 L 245.00,123.92 L 245.62,123.00 L 247.11,121.40 L 248.13,120.48 L 249.77,118.32 L 250.53,117.19 L 251.62,114.67 L 252.10,113.37 L 252.62,110.57 L 252.72,106.13 L 252.60,104.58 L 252.19,101.49 L 252.08,100.78 L 251.85,99.57 L 251.52,98.25 L 251.36,97.75 L 251.19,97.00 L 251.13,96.67 L 251.17,96.25 L 251.20,96.07 L 251.40,95.94 L 251.51,95.91 L 251.82,96.06 L 252.16,96.26 L 253.04,97.40 L 254.39,100.02 L 255.12,101.85 L 255.81,105.55 L 256.02,107.40 L 255.69,111.05 L 255.39,112.86 L 254.06,116.34 L 250.95,121.25 L 250.24,122.11 L 248.82,123.44 L 248.13,124.04 L 246.91,124.76 L 246.34,125.04 L 245.53,125.05 L 245.36,125.00 L 245.14,124.76 L 245.05,124.61 M 428.99,83.46 L 391.50,45.93 L 409.50,28.15 L 411.30,26.37 L 414.47,23.27 L 415.99,21.79 L 418.67,19.23 L 419.95,18.02 L 422.20,15.94 L 423.28,14.95 L 425.18,13.29 L 426.10,12.50 L 427.73,11.19 L 428.52,10.57 L 429.96,9.53 L 433.91,7.18 L 435.67,6.31 L 439.05,4.95 L 439.82,4.67 L 441.09,4.29 L 442.41,4.06 L 442.72,4.07 L 442.79,4.32 L 442.73,4.48 L 442.09,5.00 L 441.69,5.29 L 440.41,6.04 L 437.82,7.38 L 435.98,8.28 L 432.68,10.03 L 431.95,10.43 L 430.80,11.10 L 429.73,11.81 L 429.34,12.13 L 428.54,12.45 L 427.68,12.35 L 427.51,12.17 L 427.04,12.46 L 426.39,13.61 L 426.35,13.74 L 425.95,14.30 L 425.71,14.63 L 424.94,15.55 L 424.52,16.05 L 423.44,17.28 L 422.86,17.93 L 421.49,19.42 L 420.78,20.20 L 419.17,21.91 L 418.34,22.79 L 416.55,24.68 L 410.63,30.75 L 395.53,46.00 L 430.01,80.82 L 432.38,83.21 L 436.97,87.83 L 439.23,90.10 L 443.51,94.39 L 445.60,96.49 L 449.49,100.37 L 451.37,102.25 L 454.76,105.61 L 456.39,107.22 L 459.18,109.97 L 460.49,111.27 L 462.60,113.31 L 463.07,113.77 L 463.88,114.55 L 464.26,114.91 L 464.86,115.47 L 465.14,115.73 L 465.52,116.07 L 465.84,116.32 L 466.04,116.43 L 466.75,116.29 L 467.15,116.17 L 468.19,115.61 L 468.75,115.29 L 470.06,114.35 L 472.26,112.55 L 472.96,111.94 L 474.30,110.86 L 474.95,110.36 L 476.10,109.56 L 476.64,109.20 L 477.46,108.76 L 478.18,108.61 L 478.29,108.68 L 478.58,108.60 L 478.72,108.53 L 479.05,108.21 L 479.98,106.54 L 480.25,105.83 L 481.42,104.44 L 483.48,103.01 L 484.17,102.74 L 485.26,101.88 L 486.00,100.50 L 486.00,100.23 L 486.38,99.42 L 486.62,98.98 L 487.39,97.93 L 488.24,96.83 L 490.56,94.42 L 491.15,93.85 L 492.34,92.79 L 492.92,92.29 L 493.98,91.48 L 494.49,91.12 L 495.31,90.68 L 496.13,90.58 L 496.19,90.62 L 495.98,91.02 L 495.82,91.27 L 495.21,92.05 L 494.86,92.49 L 493.92,93.60 L 493.41,94.20 L 492.19,95.58 L 491.55,96.30 L 490.09,97.89 L 489.35,98.71 L 487.72,100.46 L 486.07,102.24 L 482.48,106.01 L 480.68,107.89 L 477.13,111.53 L 475.40,113.29 L 472.32,116.33 L 471.60,117.03 L 470.33,118.24 L 469.73,118.81 L 468.73,119.72 L 468.27,120.13 L 467.59,120.66 L 467.01,121.00 L 466.99,121.00 L 466.76,120.81 L 466.61,120.68 L 466.14,120.23 L 465.87,119.98 L 465.16,119.31 L 464.78,118.94 L 463.85,118.04 L 463.36,117.56 L 462.22,116.45 L 461.62,115.87 L 460.29,114.57 L 458.91,113.21 L 455.63,109.97 L 453.91,108.27 L 450.01,104.41 L 448.00,102.42 L 443.59,98.04 L 441.34,95.80 L 436.54,91.00 L 434.10,88.57 M 23.50,101.01 L 23.67,100.73 L 24.52,99.99 L 26.13,98.93 L 26.59,98.68 L 27.19,98.41 L 27.44,98.30 L 27.65,98.35 L 27.72,98.42 L 27.58,98.83 L 27.04,99.92 L 26.74,100.50 L 25.81,101.39 L 24.41,102.00 L 23.99,102.00 L 23.51,101.71 L 23.35,101.53 M 29.00,97.16 L 29.00,96.93 L 29.73,96.23 L 31.50,95.18 L 32.16,94.88 L 33.10,94.64 L 33.50,94.58 L 33.89,94.79 L 34.02,94.94 L 33.81,95.53 L 32.80,96.80 L 32.46,97.14 L 31.63,97.61 L 31.20,97.81 L 30.38,97.96 L 29.99,98.00 L 29.40,97.82 L 29.15,97.69 M 39.34,91.47 L 40.12,91.03 L 41.51,90.49 L 41.82,90.40 L 42.31,90.33 L 42.76,90.42 L 42.97,90.64 L 43.08,91.00 L 43.07,91.18 L 42.70,91.50 L 42.45,91.66 L 41.54,91.97 L 39.50,92.47 L 36.50,93.10 L 39.34,91.47 M 50.56,89.10 L 50.41,88.86 L 50.64,88.29 L 51.59,87.60 L 52.22,87.36 L 53.18,87.11 L 53.61,87.02 L 54.16,87.09 L 54.39,87.16 L 54.55,87.55 L 54.36,88.50 L 54.20,88.91 L 53.62,89.49 L 53.31,89.73 L 52.55,89.95 L 52.17,90.01 L 51.44,89.84 L 51.09,89.70 M 239.81,89.48 L 239.79,89.46 L 239.30,89.43 L 238.99,89.41 L 237.92,89.37 L 237.32,89.36 L 235.70,89.33 L 234.83,89.31 L 232.70,89.28 L 231.58,89.26 L 228.96,89.23 L 227.59,89.22 L 224.52,89.19 L 222.93,89.18 L 219.43,89.15 L 217.63,89.14 L 213.73,89.12 L 211.74,89.11 L 207.47,89.09 L 205.30,89.08 L 200.70,89.06 L 198.36,89.05 L 193.45,89.04 L 190.97,89.03 L 185.79,89.02 L 180.54,89.01 L 169.35,88.99 L 151.76,88.99 L 146.89,88.99 L 137.95,88.99 L 133.60,88.99 L 125.65,88.99 L 121.79,88.99 L 114.77,88.98 L 111.37,88.97 L 105.23,88.96 L 102.26,88.95 L 96.94,88.93 L 94.37,88.92 L 89.81,88.89 L 87.62,88.87 L 83.76,88.83 L 81.92,88.81 L 78.71,88.76 L 77.18,88.73 L 74.56,88.67 L 73.31,88.64 L 71.23,88.57 L 70.24,88.53 L 68.63,88.44 L 67.88,88.40 L 66.68,88.30 L 66.13,88.25 L 65.29,88.13 L 64.91,88.07 L 64.38,87.94 L 63.63,87.48 L 63.57,87.31 L 64.01,87.03 L 64.19,86.96 L 64.76,86.84 L 65.09,86.78 L 66.01,86.67 L 66.52,86.62 L 67.85,86.53 L 68.56,86.49 L 70.35,86.42 L 71.31,86.38 L 73.62,86.32 L 74.85,86.29 L 77.74,86.25 L 79.26,86.22 L 82.80,86.19 L 84.65,86.17 L 88.88,86.15 L 91.10,86.14 L 96.09,86.13 L 98.69,86.13 L 104.50,86.12 L 107.51,86.12 L 114.21,86.13 L 117.67,86.14 L 125.30,86.15 L 129.23,86.16 L 137.86,86.18 L 140.08,86.19 L 144.72,86.20 L 151.99,86.22 L 154.58,86.23 L 159.56,86.25 L 162.01,86.26 L 166.69,86.27 L 169.00,86.28 L 173.40,86.29 L 175.56,86.30 L 179.69,86.32 L 183.75,86.33 L 191.10,86.37 L 194.64,86.38 L 201.01,86.42 L 204.08,86.44 L 209.54,86.48 L 212.17,86.50 L 216.80,86.55 L 219.01,86.57 L 222.88,86.63 L 224.73,86.66 L 227.90,86.72 L 229.41,86.75 L 231.97,86.83 L 233.18,86.87 L 235.19,86.96 L 236.13,87.00 L 237.67,87.11 L 238.38,87.16 L 239.51,87.28 L 240.03,87.34 L 240.83,87.48 L 241.19,87.55 L 241.72,87.70 L 242.68,88.25 L 243.10,88.67 L 243.61,89.23 L 243.81,89.47 L 243.89,89.75 L 243.87,89.86 L 243.48,89.96 L 242.38,90.00 L 241.82,90.00 L 240.78,89.85 L 240.32,89.75 M 501.00,84.08 L 501.00,83.57 L 501.22,82.58 L 501.37,82.10 L 501.81,81.27 L 502.06,80.89 L 502.65,80.35 L 503.61,80.00 L 504.04,80.00 L 504.58,80.19 L 504.79,80.32 L 504.90,80.77 L 504.90,81.04 L 504.58,81.78 L 503.61,83.25 L 503.25,83.73 L 502.59,84.39 L 502.28,84.67 L 501.76,84.92 L 501.53,85.00 L 501.20,84.83 L 501.07,84.69 M 507.58,71.14 L 507.47,70.96 L 507.37,70.29 L 507.33,69.92 L 507.37,68.96 L 507.99,65.54 L 508.12,65.06 L 508.34,63.53 L 508.44,62.69 L 508.58,60.58 L 508.64,59.48 L 508.71,56.99 L 508.74,55.72 L 508.74,53.06 L 508.73,50.40 L 508.50,45.40 L 508.43,44.24 L 508.23,42.26 L 507.86,40.00 L 507.76,39.59 L 507.90,38.79 L 508.50,38.00 L 508.72,37.89 L 509.16,38.23 L 509.38,38.49 L 509.80,39.48 L 510.01,40.04 L 510.39,41.55 L 510.57,42.36 L 510.89,44.27 L 511.20,46.24 L 511.54,50.86 L 511.52,57.78 L 511.38,60.00 L 510.86,63.93 L 510.71,64.85 L 510.39,66.50 L 510.22,67.29 L 509.85,68.63 L 509.67,69.26 L 509.29,70.24 L 509.09,70.68 L 508.70,71.24 L 508.51,71.47 L 508.13,71.57 L 507.94,71.55 M 492.10,16.06 L 491.75,15.84 L 491.29,14.99 L 491.15,13.52 L 491.23,13.12 L 491.39,12.63 L 491.48,12.44 L 491.73,12.37 L 491.88,12.39 L 492.32,12.75 L 493.32,13.79 L 493.79,14.31 L 494.24,15.23 L 494.39,15.65 L 494.27,16.24 L 494.14,16.48 L 493.51,16.59 L 493.15,16.58 M 474.93,6.89 L 473.94,6.51 L 472.29,5.88 L 471.51,5.58 L 470.24,5.11 L 469.64,4.89 L 468.65,4.55 L 468.19,4.40 L 467.43,4.18 L 466.72,3.99 L 465.63,3.86 L 463.92,3.91 L 463.21,3.97 L 461.72,3.60 L 460.05,2.56 L 459.77,2.23 L 459.46,1.76 L 459.34,1.55 L 459.34,1.28 L 459.39,1.17 L 459.75,1.06 L 460.69,1.00 L 461.20,1.00 L 462.47,1.10 L 463.13,1.17 L 464.66,1.38 L 466.23,1.63 L 469.78,2.37 L 471.56,2.78 L 474.99,3.73 L 475.81,3.97 L 477.31,4.47 L 479.25,5.21 L 480.30,5.66 L 481.85,6.46 L 482.53,6.84 L 483.38,7.48 L 483.73,7.78 L 483.94,8.23 L 483.97,8.44 L 483.59,8.69 L 483.34,8.79 L 482.43,8.82 L 481.92,8.80 L 480.55,8.58 L 479.81,8.44 L 478.02,7.95 L 477.08,7.67 M 452.50,2.00 L 452.41,1.86 L 452.45,1.60 L 452.50,1.48 L 452.79,1.29 L 454.44,1.00 L 455.14,1.00 L 456.25,1.29 L 457.00,2.00 L 457.00,2.27 L 456.43,2.71 L 455.06,3.00 L 454.53,3.00 L 453.51,2.71 L 453.04,2.52 Z" fill="rgba(1,1,1,1)"/>
</g>
</svg>