<svg xmlns="http://www.w3.org/2000/svg" width="512" height="512" viewBox="0 0 512 512">
<g>
<path d="M 35.13,466.27 L 34.81,467.73 L 34.49,469.14 L 34.36,469.75 L 34.09,470.91 L 33.98,471.38 L 33.77,472.24 L 33.69,472.54 L 33.54,473.06 L 33.50,473.17 L 33.38,475.00 L 33.70,476.44 L 34.02,477.04 L 34.54,478.27 L 34.65,478.99 L 34.59,479.36 L 34.37,480.11 L 34.12,480.55 L 33.54,481.49 L 33.10,482.08 L 31.76,484.46 L 31.22,486.17 L 31.12,487.13 L 31.08,488.38 L 31.04,487.38 L 31.03,486.40 L 31.24,484.88 L 31.31,484.55 L 31.50,484.05 L 31.87,483.58 L 32.10,483.44 L 32.34,482.48 L 32.26,480.59 L 32.20,480.26 L 32.20,479.26 L 32.22,478.72 L 32.38,477.44 L 33.33,473.32 L 33.44,472.99 L 33.69,472.09 L 33.83,471.60 L 34.13,470.42 L 34.44,469.19 L 35.16,466.10 L 35.18,466.02 M 41.38,437.93 L 40.69,440.42 L 40.35,441.75 L 39.77,444.14 L 39.79,444.03 L 40.43,441.43 L 40.75,440.16 L 41.43,437.77 L 42.00,435.81 M 42.10,435.48 L 42.12,435.40 L 43.38,431.83 M 206.51,9.63 L 206.77,9.46 L 207.51,9.10 L 208.32,8.72 L 210.68,7.86 L 211.95,7.42 L 214.97,6.49 L 216.53,6.03 L 219.86,5.13 L 220.77,4.89 L 216.38,6.19 L 214.19,6.90 L 212.04,7.60 L 211.09,7.93 L 209.28,8.57 L 208.55,8.85 L 207.21,9.38 L 206.78,9.59 L 206.06,9.96 L 205.99,10.07 L 206.08,9.94 M 249.26,0.17 L 248.25,0.25 L 246.44,0.41 L 245.87,0.51 L 245.37,0.62 L 245.23,0.67 L 245.00,0.78 L 245.00,0.84 L 244.77,1.54 L 244.40,1.97 L 244.13,2.16 L 242.83,2.85 L 241.97,3.06 L 240.13,3.39 L 239.15,3.38 L 237.21,3.23 L 236.35,2.95 L 233.12,2.43 L 233.38,2.41 L 234.15,2.39 L 234.96,2.49 L 235.59,2.69 L 236.45,2.65 L 237.00,1.96 L 237.00,1.77 L 237.26,1.48 L 237.43,1.35 L 238.02,1.19 L 238.36,1.12 L 239.27,1.08 L 241.00,1.17 L 242.10,1.28 L 243.82,1.21 L 244.19,1.18 L 244.68,1.05 L 245.00,0.78 L 245.00,0.72 L 245.23,0.62 L 245.37,0.57 L 245.87,0.47 L 246.44,0.38 L 248.25,0.23 L 249.26,0.16 L 251.77,0.06 L 256.07,0.00 L 251.77,0.07 Z" fill="rgba(42,119,112,1)"/>
<path d="M 232.31,267.69 L 234.67,268.09 L 235.96,268.30 L 238.59,268.72 L 240.00,268.94 L 243.26,269.36 L 242.21,269.29 L 240.00,269.00 L 238.42,268.75 L 235.58,268.26 L 234.20,268.03 L 231.75,267.59 L 231.36,267.52 M 281.78,267.53 L 280.56,267.76 L 277.50,268.19 L 276.45,268.32 L 276.78,268.27 L 280.91,267.63 L 282.87,267.25 L 283.97,267.02 M 231.00,267.45 L 230.57,267.37 L 229.87,267.24 M 227.70,266.81 L 227.48,266.77 L 226.63,266.58 M 225.86,266.42 L 225.73,266.39 L 225.60,266.36 M 221.83,265.39 L 223.10,265.75 L 223.83,265.94 L 225.34,266.30 L 224.90,266.20 L 223.46,265.85 L 222.77,265.68 L 221.62,265.34 L 221.51,265.30 M 318.61,254.47 L 315.75,256.01 L 309.87,258.75 L 306.91,260.06 L 300.83,262.35 L 297.76,263.43 L 291.47,265.27 L 288.88,265.87 L 295.50,263.97 L 300.15,262.44 L 302.44,261.59 L 306.98,259.85 L 309.18,258.91 L 313.52,256.99 L 315.58,255.99 L 318.82,254.35 M 389.33,155.54 L 388.54,160.47 L 387.77,164.06 L 385.97,170.89 L 385.03,174.26 L 382.86,180.69 L 381.73,183.86 L 379.17,189.94 L 377.84,192.94 L 374.86,198.71 L 373.31,201.56 L 369.88,207.07 L 368.11,209.80 L 364.21,215.11 L 362.20,217.75 L 357.79,222.90 L 350.59,230.51 L 348.12,232.97 L 343.02,237.54 L 340.45,239.76 L 335.17,243.87 L 332.51,245.87 L 329.99,247.55 L 331.35,246.49 L 333.95,244.35 L 335.00,243.30 L 338.97,239.73 L 340.24,238.71 L 340.78,238.32 L 341.81,237.61 L 342.18,237.42 L 344.26,235.85 L 345.31,234.58 L 345.49,234.04 L 346.23,232.81 L 347.17,231.64 L 347.80,230.94 L 349.16,229.47 L 349.95,228.68 L 351.59,227.07 L 352.46,226.28 L 359.40,219.28 L 361.47,216.84 L 362.46,215.55 L 364.41,212.91 L 365.37,211.49 L 367.27,208.55 L 368.23,206.94 L 370.14,203.62 L 371.13,201.77 L 373.12,197.96 L 374.17,195.84 L 376.30,191.45 L 377.44,189.01 L 380.99,180.59 L 383.14,174.70 L 384.02,171.89 L 384.86,169.13 L 385.22,167.84 L 385.89,165.32 L 386.14,164.19 L 386.60,162.01 L 386.74,161.09 L 386.96,159.37 L 386.97,158.72 L 387.43,156.59 L 388.09,155.52 L 388.50,155.36 L 389.43,154.59 M 122.76,155.45 L 122.96,156.51 L 123.37,158.53 L 123.57,159.33 L 124.58,164.02 L 124.81,165.37 L 124.89,165.90 L 124.94,166.30 L 124.88,165.85 L 124.80,165.32 L 124.55,163.98 L 123.46,159.30 L 123.35,158.88 L 123.13,157.82 L 123.02,157.25 L 122.81,155.91 L 122.62,154.64 M 390.23,142.40 L 390.15,144.82 L 389.89,149.38 L 389.74,151.60 L 389.73,151.65 L 389.73,151.63 L 389.25,150.65 L 388.84,150.24 L 388.24,148.97 L 388.34,148.51 L 388.48,148.25 L 388.83,147.71 L 389.09,147.39 L 389.70,145.80 L 390.03,144.06 L 390.16,142.95 L 390.23,142.27 M 121.40,130.23 L 122.01,131.59 L 122.50,132.00 L 123.59,133.40 L 123.95,134.47 L 123.94,135.02 L 123.80,136.13 L 123.55,136.65 L 122.92,137.65 L 122.42,138.07 L 121.65,139.02 L 121.46,139.53 L 121.44,139.19 L 121.40,137.70 L 121.32,135.13 L 121.29,133.91 L 121.26,131.85 L 121.26,130.88 L 121.27,129.82 M 286.73,3.53 L 288.50,4.03 L 289.32,4.39 L 290.81,4.90 L 291.14,5.01 L 291.67,5.14 L 292.16,5.19 L 292.37,5.15 L 293.34,5.33 L 293.90,5.45 L 295.47,5.92 L 296.32,6.19 L 298.34,6.90 L 299.40,7.29 L 301.74,8.18 L 304.13,9.11 L 309.25,11.30 L 310.51,11.85 L 312.94,12.96 L 316.29,14.59 L 318.09,15.51 L 321.44,17.31 L 323.08,18.21 L 326.17,20.01 L 329.21,21.83 L 334.77,25.68 L 337.50,27.67 L 342.83,32.13 L 344.16,33.30 L 346.88,35.82 L 351.08,39.91 L 353.56,42.39 L 358.14,47.44 L 360.36,49.98 L 364.44,55.18 L 366.43,57.80 L 370.04,63.19 L 371.79,65.91 L 374.96,71.54 L 376.49,74.38 L 379.24,80.28 L 380.56,83.27 L 382.91,89.49 L 384.03,92.64 L 386.00,99.22 L 388.54,109.53 L 388.84,110.92 L 389.33,114.46 L 389.55,116.33 L 389.89,120.62 L 390.04,122.83 L 390.13,125.25 L 390.05,124.87 L 389.89,124.23 L 389.80,123.99 L 389.60,123.59 L 389.49,123.50 L 388.96,122.48 L 388.56,121.26 L 388.35,120.44 L 387.94,118.69 L 387.75,117.69 L 387.38,115.60 L 387.23,114.50 L 386.62,110.76 L 386.09,108.07 L 385.78,106.67 L 384.43,100.95 L 383.64,98.12 L 382.01,92.56 L 381.17,90.14 L 380.33,87.79 L 379.92,86.76 L 379.10,84.80 L 378.72,84.00 L 377.17,80.62 L 376.81,79.75 L 376.70,79.44 L 376.52,78.92 L 376.52,78.83 L 376.33,78.23 L 376.03,77.58 L 375.79,77.13 L 375.26,76.16 L 374.91,75.55 L 374.15,74.26 L 373.69,73.49 L 372.71,71.88 L 372.14,70.97 L 370.94,69.05 L 370.26,67.99 L 368.85,65.78 L 368.06,64.56 L 366.44,62.06 L 365.56,60.71 L 359.69,52.52 L 355.41,47.30 L 353.09,44.81 L 348.36,39.92 L 345.83,37.61 L 340.67,33.08 L 337.94,30.96 L 332.38,26.81 L 329.47,24.89 L 323.54,21.14 L 320.45,19.43 L 314.20,16.11 L 310.95,14.63 L 304.39,11.76 L 301.00,10.51 L 295.12,8.01 L 293.49,7.20 L 292.87,6.84 L 291.77,6.17 L 291.50,5.92 L 288.85,4.32 L 286.56,3.50 M 121.72,124.78 L 121.75,124.69 L 122.50,123.35 L 122.59,123.26 M 123.64,121.38 L 123.11,122.75 L 122.79,123.06 L 123.20,122.35 L 123.38,121.95 L 123.59,120.94 L 123.64,120.62 M 229.00,2.81 L 227.85,3.18 L 225.44,4.05 L 224.00,4.68 L 221.93,5.58 L 220.74,6.09 L 220.23,6.30 L 218.39,7.07 L 217.68,7.35 L 215.28,8.22 L 214.00,8.57 L 212.79,8.96 L 211.80,9.32 L 211.21,9.55 L 209.96,10.05 L 209.23,10.36 L 207.71,11.00 L 206.85,11.38 L 205.05,12.17 L 204.05,12.62 L 201.97,13.56 L 200.82,14.09 L 198.44,15.19 L 197.14,15.80 L 194.46,17.05 L 193.00,17.74 L 186.46,21.15 L 182.11,23.68 L 180.16,24.94 L 178.26,26.19 L 177.41,26.79 L 175.77,27.96 L 175.08,28.49 L 173.79,29.53 L 173.30,29.99 L 172.44,30.84 L 172.19,31.18 L 170.86,32.47 L 169.89,33.00 L 169.51,33.00 L 168.72,33.35 L 168.01,33.90 L 167.60,34.30 L 165.82,36.21 L 164.95,37.43 L 163.40,39.39 L 162.20,40.79 L 161.56,41.47 L 160.27,42.81 L 159.64,43.41 L 158.42,44.54 L 157.88,44.97 L 155.14,47.48 L 154.50,48.20 L 154.31,48.48 L 154.00,48.99 L 154.00,49.13 L 153.73,49.86 L 153.31,50.61 L 153.00,51.08 L 151.53,53.19 L 150.60,54.33 L 146.91,59.21 L 144.50,62.74 L 143.33,64.62 L 138.79,72.38 L 136.81,76.42 L 134.89,80.48 L 134.03,82.49 L 132.38,86.50 L 131.67,88.46 L 130.35,92.32 L 129.82,94.16 L 128.86,97.76 L 128.54,99.43 L 127.22,105.30 L 126.78,106.92 L 126.58,107.54 L 126.20,108.62 L 126.06,108.89 L 125.48,110.69 L 125.40,111.88 L 125.55,112.27 L 125.49,113.63 L 125.00,114.58 L 124.59,114.93 L 123.61,116.56 L 123.57,117.00 L 123.52,116.23 L 123.38,114.69 L 123.43,111.38 L 123.46,110.60 L 123.61,109.20 L 123.93,107.57 L 124.06,107.15 L 124.50,105.72 L 124.74,104.93 L 125.36,102.95 L 127.50,96.16 L 127.87,95.01 L 128.56,92.77 L 128.89,91.68 L 129.48,89.72 L 129.75,88.80 L 130.16,87.35 L 130.50,85.98 L 130.60,85.48 L 131.22,83.98 L 132.43,81.74 L 132.86,81.08 L 133.35,79.85 L 133.43,79.57 L 133.47,79.12 L 133.34,78.67 L 133.15,78.49 L 133.26,78.20 L 134.00,78.00 L 134.37,78.00 L 134.76,77.82 L 134.71,77.37 L 134.63,77.30 L 134.61,76.92 L 134.63,76.70 L 134.77,76.10 L 134.94,75.45 L 135.61,73.82 L 135.97,72.99 L 136.81,71.47 L 137.96,70.00 L 138.06,69.93 L 138.59,69.25 L 138.91,68.84 L 139.80,67.59 L 140.28,66.91 L 141.41,65.26 L 143.25,62.50 L 144.31,60.90 L 146.13,58.16 L 147.01,56.85 L 148.55,54.60 L 149.30,53.53 L 150.69,51.63 L 151.37,50.71 L 152.70,49.02 L 154.05,47.35 L 157.07,44.06 L 157.89,43.19 L 159.75,41.29 L 163.00,38.05 L 164.51,36.56 L 167.79,33.57 L 169.46,32.09 L 172.99,29.18 L 176.56,26.31 L 183.90,21.14 L 185.71,19.93 L 189.23,17.75 L 190.96,16.71 L 194.23,14.94 L 195.82,14.11 L 198.71,12.84 L 202.49,11.56 L 203.31,11.37 L 204.75,10.83 L 205.07,10.69 L 205.56,10.43 L 205.99,10.07 L 206.06,9.96 L 206.78,9.59 L 207.21,9.38 L 208.55,8.85 L 209.28,8.57 L 211.09,7.93 L 212.04,7.60 L 214.19,6.90 L 216.38,6.19 L 221.16,4.77 L 222.33,4.44 L 224.60,3.82 L 227.72,3.04 L 228.71,2.82 L 230.37,2.53 L 230.65,2.48 M 244.40,1.98 L 244.13,2.17 L 242.83,2.85 L 241.96,3.06 L 241.08,3.22 L 241.97,3.06 L 242.83,2.85 L 244.13,2.16 L 244.40,1.97 L 244.77,1.54 L 245.00,0.84 L 244.77,1.55 M 236.35,2.95 L 236.93,3.14 L 236.35,2.95 M 268.62,1.48 L 268.89,1.75 L 269.73,2.16 L 270.20,2.35 L 271.52,2.60 L 272.25,2.71 L 274.16,2.82 L 274.59,2.83 L 273.17,2.90 L 271.76,2.86 L 271.20,2.77 L 270.19,2.55 L 269.79,2.35 L 269.06,1.91 L 268.75,1.61 L 267.72,0.97 M 267.37,0.77 L 267.42,0.80 L 266.94,0.66 Z" fill="rgba(44,120,113,1)"/>
<path d="M 42.50,511.80 L 256.39,511.90 L 470.29,512.00 L 256.39,511.94 L 42.50,511.87 L 38.94,508.25 M 37.14,506.37 L 37.90,507.18 L 37.16,506.43 L 37.03,506.25 M 31.14,488.88 L 31.39,489.45 L 32.04,490.46 L 32.59,490.67 L 33.35,491.17 L 33.66,491.66 L 33.73,492.03 L 33.82,492.87 L 33.78,493.45 L 33.67,494.75 L 33.54,495.60 L 33.33,499.00 L 33.58,500.69 L 33.46,500.41 L 33.28,499.61 L 32.74,497.33 L 31.91,494.00 L 31.56,492.62 L 31.18,490.25 L 31.05,489.11 L 31.09,487.93 M 31.72,484.57 L 31.76,484.46 L 32.26,483.57 M 36.37,460.90 L 36.06,463.34 L 35.53,468.24 L 35.42,470.50 L 35.11,474.96 L 34.84,477.27 L 34.65,478.17 L 34.57,478.48 L 34.54,478.27 L 34.02,477.04 L 33.70,476.44 L 33.38,475.00 L 33.50,473.17 L 33.54,473.06 L 33.69,472.54 L 33.77,472.24 L 33.98,471.38 L 34.09,470.91 L 34.36,469.75 L 34.49,469.14 L 34.81,467.73 L 35.13,466.27 L 35.86,462.76 L 37.04,457.00 L 37.07,456.83 M 472.61,445.48 L 473.46,448.56 L 474.94,454.62 L 475.63,457.62 L 476.75,463.38 L 476.90,464.36 L 475.96,459.38 L 475.37,456.73 L 474.13,451.37 L 473.45,448.69 L 472.42,444.82 M 202.15,302.37 L 201.74,302.96 L 200.91,303.85 L 200.26,304.28 L 199.86,304.41 L 199.02,304.64 L 198.50,304.68 L 197.41,304.72 L 196.74,304.68 L 193.99,304.32 L 193.26,304.15 L 193.00,304.06 L 192.55,303.88 L 192.46,303.79 L 191.49,303.43 L 190.72,303.54 L 190.35,303.74 L 189.64,304.20 L 189.40,304.53 L 189.00,305.22 L 189.00,305.61 L 188.58,306.44 L 187.90,306.84 L 187.38,306.97 L 186.20,307.17 L 185.44,307.18 L 183.81,307.16 L 182.84,307.07 L 181.47,307.26 L 180.71,307.66 L 180.53,307.95 L 179.45,308.69 L 178.36,309.00 L 177.78,309.00 L 176.26,309.16 L 174.96,309.43 L 174.18,309.64 L 172.54,310.10 L 171.61,310.39 L 169.68,311.02 L 168.62,311.40 L 164.14,313.04 L 161.63,314.04 L 156.48,316.15 L 153.77,317.32 L 148.30,319.74 L 145.58,321.02 L 140.17,323.59 L 137.61,324.88 L 132.61,327.45 L 130.40,328.67 L 128.24,329.89 L 127.25,330.47 L 125.34,331.62 L 124.50,332.16 L 118.44,336.28 L 114.28,339.31 L 112.18,340.94 L 103.73,347.74 L 99.64,351.38 L 95.59,355.04 L 93.65,356.89 L 89.83,360.60 L 88.03,362.44 L 84.53,366.11 L 82.93,367.89 L 79.85,371.43 L 78.50,373.12 L 73.31,379.97 L 69.91,384.80 L 68.25,387.33 L 64.97,392.44 L 63.40,395.08 L 60.29,400.40 L 58.81,403.10 L 55.92,408.54 L 54.56,411.28 L 51.92,416.75 L 50.71,419.48 L 48.37,424.92 L 47.33,427.60 L 45.33,432.91 L 44.47,435.50 L 42.87,440.21 L 41.86,443.01 L 41.43,444.15 L 40.62,446.23 L 40.32,446.91 L 40.05,447.53 L 39.94,447.73 L 39.75,448.05 L 39.70,448.09 L 39.10,449.00 L 38.68,450.06 L 38.46,450.79 L 38.02,452.35 L 37.80,453.28 L 37.63,454.07 L 38.25,451.03 L 38.63,449.22 L 39.33,446.04 L 39.68,444.50 L 40.35,441.75 L 40.69,440.42 L 41.38,437.93 L 42.09,435.49 L 43.78,430.70 L 44.24,429.45 L 45.29,426.78 L 47.10,422.33 L 48.17,419.73 L 50.32,414.94 L 51.41,412.57 L 53.78,407.88 L 55.01,405.50 L 57.83,400.46 L 58.57,399.16 L 60.19,396.40 L 62.84,392.00 L 63.42,391.04 L 64.42,389.40 L 64.90,388.62 L 65.76,387.26 L 66.59,385.94 L 68.24,383.52 L 68.69,382.89 L 69.68,381.51 L 70.21,380.79 L 71.44,379.14 L 72.10,378.27 L 73.67,376.21 L 76.50,372.50 L 77.10,371.72 L 78.77,369.70 L 79.67,368.63 L 81.81,366.20 L 84.02,363.71 L 88.93,358.42 L 90.13,357.14 L 92.38,354.79 L 93.47,353.67 L 95.36,351.80 L 96.23,350.94 L 97.53,349.75 L 97.81,349.51 L 98.23,349.20 L 98.60,349.00 L 98.64,349.00 L 98.87,348.86 L 99.02,348.77 L 99.45,348.46 L 99.93,348.11 L 101.37,346.98 L 102.16,346.36 L 104.09,344.79 L 107.31,342.12 L 109.54,340.26 L 113.96,336.86 L 116.19,335.21 L 120.85,332.09 L 123.24,330.55 L 128.46,327.51 L 137.28,322.80 L 138.41,322.23 L 140.57,321.08 L 141.62,320.51 L 143.47,319.47 L 144.34,318.97 L 145.66,318.15 L 146.82,317.31 L 147.18,316.95 L 148.41,316.39 L 150.38,316.00 L 151.00,316.00 L 152.53,315.57 L 154.56,314.53 L 155.09,314.13 L 156.35,313.49 L 157.93,313.03 L 158.13,313.03 L 158.81,312.87 L 159.19,312.77 L 160.14,312.46 L 163.43,311.14 L 164.59,310.61 L 167.34,309.56 L 168.78,309.03 L 172.01,308.00 L 173.67,307.49 L 177.27,306.50 L 179.11,306.01 L 182.98,305.10 L 186.90,304.21 L 195.07,302.74 L 202.92,301.74 M 470.84,439.30 L 470.94,439.66 L 470.73,438.98 M 328.45,304.81 L 333.45,305.98 L 343.40,308.92 L 348.34,310.49 L 357.99,314.17 L 371.90,320.45 L 374.00,321.50 L 377.49,323.34 L 379.18,324.25 L 382.39,326.13 L 384.04,327.11 L 387.70,329.46 L 388.68,330.10 L 390.85,331.54 L 394.50,333.99 L 397.49,336.02 L 403.41,340.49 L 406.35,342.79 L 412.13,347.76 L 414.99,350.30 L 420.58,355.73 L 423.35,358.49 L 428.69,364.30 L 431.33,367.25 L 436.39,373.40 L 438.88,376.52 L 443.59,382.94 L 445.90,386.19 L 450.22,392.84 L 456.20,403.00 L 457.43,405.23 L 459.85,410.22 L 461.05,412.79 L 463.40,418.33 L 464.55,421.16 L 466.76,427.08 L 467.84,430.08 L 468.21,431.21 L 467.53,429.25 L 466.81,427.43 L 466.10,425.68 L 465.75,424.90 L 465.08,423.43 L 464.75,422.81 L 464.12,421.66 L 463.83,421.22 L 463.25,420.42 L 462.99,420.18 L 461.94,418.78 L 460.95,417.21 L 460.36,416.20 L 459.13,414.04 L 458.47,412.82 L 457.15,410.31 L 456.50,409.00 L 450.46,397.88 L 446.04,390.63 L 443.64,387.10 L 438.73,380.12 L 436.10,376.75 L 430.72,370.08 L 427.88,366.88 L 422.09,360.57 L 419.05,357.56 L 412.89,351.65 L 409.68,348.85 L 403.17,343.39 L 399.80,340.83 L 393.00,335.85 L 389.50,333.56 L 381.18,328.39 L 375.33,325.00 L 372.50,323.46 L 369.70,321.96 L 368.37,321.27 L 365.76,319.94 L 364.56,319.37 L 362.25,318.27 L 361.23,317.83 L 359.29,317.01 L 358.50,316.72 L 350.79,314.00 L 345.68,312.26 L 343.39,311.50 L 341.15,310.76 L 340.14,310.44 L 338.20,309.82 L 337.37,309.57 L 335.82,309.10 L 335.22,308.93 L 334.15,308.64 L 333.82,308.57 L 331.49,307.73 L 330.06,306.92 L 329.65,306.51 L 328.47,305.70 L 327.92,305.75 L 327.81,306.08 L 327.46,306.34 L 327.04,306.32 L 326.76,306.22 L 325.47,305.59 L 324.68,304.96 L 323.05,303.86 L 322.20,303.47 M 301.35,301.23 L 303.35,301.30 L 306.52,301.43 L 306.39,301.51 L 305.43,302.20 L 305.12,302.74 L 304.51,303.64 L 304.11,303.92 L 303.84,303.88 L 303.24,303.70 L 302.81,303.43 L 301.82,302.77 L 301.11,302.24 L 299.45,301.32 L 299.03,301.16 M 213.18,300.90 L 212.69,301.15 L 211.79,301.68 L 211.50,302.00 L 209.95,303.37 L 208.98,303.87 L 208.56,303.92 L 207.76,303.87 L 207.43,303.63 L 206.84,303.02 L 206.64,302.50 L 205.77,301.37 L 207.00,301.22 L 207.89,301.14 L 210.45,301.00 L 211.84,300.94 L 213.20,300.89 M 310.88,301.68 L 311.45,301.72 L 312.39,301.80 L 313.50,301.94 L 318.45,302.67 L 321.20,303.26 L 320.23,303.15 L 319.44,303.18 L 317.72,303.30 L 316.58,303.45 L 313.90,303.71 L 312.62,303.74 L 312.18,303.68 L 311.42,303.49 L 311.18,303.30 L 310.78,302.87 L 310.66,302.56 L 309.82,301.61 M 262.03,300.57 L 267.94,300.61 L 279.37,300.75 L 282.15,300.79 L 286.89,300.87 L 286.48,301.19 L 286.36,301.50 L 285.96,301.93 L 285.43,302.18 L 284.99,302.28 L 283.97,302.47 L 283.23,302.54 L 281.60,302.68 L 280.49,302.73 L 278.09,302.83 L 276.56,302.86 L 273.26,302.93 L 271.22,302.95 L 269.12,302.97 L 267.96,302.97 L 265.57,302.98 L 264.27,302.99 L 261.59,303.00 L 260.13,303.00 L 257.12,303.00 L 255.50,303.00 L 250.87,303.00 L 248.03,302.99 L 246.73,302.99 L 244.20,302.98 L 243.04,302.97 L 240.80,302.96 L 239.78,302.95 L 235.97,302.90 L 234.44,302.86 L 231.61,302.79 L 230.51,302.73 L 228.50,302.62 L 227.77,302.54 L 226.46,302.38 L 226.01,302.28 L 225.26,302.06 L 225.04,301.93 L 224.70,301.66 L 224.64,301.50 L 223.90,300.72 L 223.75,300.65 L 228.33,300.59 L 230.81,300.57 L 236.11,300.54 L 238.81,300.52 L 244.46,300.51 L 250.17,300.51 M 257.56,267.44 L 258.66,268.09 L 259.00,268.50 L 260.89,269.66 L 261.30,269.74 L 259.53,269.85 L 251.21,269.83 L 251.78,269.66 L 252.52,269.37 L 252.79,269.18 L 253.26,268.76 L 253.36,268.50 L 254.33,267.44 L 255.32,267.00 L 255.85,267.00 M 242.91,267.77 L 243.48,268.34 L 244.09,268.84 L 244.49,269.04 L 245.33,269.42 L 245.81,269.56 L 245.87,269.57 L 245.30,269.53 L 243.43,269.38 L 240.00,268.94 L 238.59,268.72 L 235.96,268.30 L 235.02,268.15 L 237.68,268.40 L 238.87,268.36 L 239.97,268.28 L 240.36,268.19 L 241.02,267.96 L 241.13,267.78 L 242.06,267.35 M 271.14,266.50 L 271.40,266.67 L 271.95,267.09 L 272.30,267.44 L 273.73,268.59 L 273.95,268.68 L 272.60,268.88 L 266.09,269.41 L 266.23,269.35 L 267.92,268.55 L 268.56,267.94 L 269.78,266.88 L 270.39,266.50 L 270.64,266.47 M 389.09,147.39 L 388.83,147.71 L 388.48,148.25 L 388.34,148.51 L 388.24,148.97 L 388.84,150.24 L 389.25,150.65 L 389.73,151.63 L 389.91,152.14 L 389.95,153.16 L 389.92,153.65 L 389.53,154.50 L 388.50,155.36 L 388.09,155.52 L 387.43,156.59 L 386.97,158.72 L 386.96,159.37 L 386.74,161.09 L 386.60,162.01 L 386.14,164.19 L 385.89,165.32 L 385.22,167.84 L 384.86,169.13 L 384.02,171.89 L 383.14,174.70 L 380.99,180.59 L 377.44,189.01 L 376.30,191.45 L 374.17,195.84 L 373.12,197.96 L 371.13,201.77 L 370.14,203.62 L 368.23,206.94 L 367.27,208.55 L 365.37,211.49 L 364.41,212.91 L 362.46,215.55 L 361.47,216.84 L 359.40,219.28 L 352.46,226.28 L 351.59,227.07 L 349.95,228.68 L 349.16,229.47 L 347.80,230.94 L 347.17,231.64 L 346.23,232.81 L 345.49,234.04 L 345.31,234.58 L 344.26,235.85 L 342.18,237.42 L 341.81,237.61 L 340.78,238.32 L 340.24,238.71 L 338.97,239.73 L 335.00,243.30 L 333.95,244.35 L 331.35,246.49 L 329.97,247.56 L 326.80,249.71 L 325.15,250.78 L 321.50,252.90 L 319.62,253.95 L 315.58,255.99 L 313.52,256.99 L 309.18,258.91 L 306.98,259.85 L 302.44,261.59 L 300.15,262.44 L 295.50,263.97 L 288.50,265.98 L 286.72,266.44 L 282.87,267.25 L 280.91,267.63 L 276.78,268.27 L 276.01,268.39 L 276.66,267.63 L 276.98,267.04 L 278.11,265.80 L 278.99,265.44 L 279.35,265.58 L 280.24,265.65 L 281.13,265.56 L 281.68,265.46 L 284.12,264.92 L 285.43,264.47 L 288.96,263.50 L 289.85,263.34 L 290.16,263.33 L 290.68,263.34 L 290.75,263.42 L 291.47,263.57 L 292.11,263.37 L 292.41,263.14 L 293.27,262.66 L 294.20,262.24 L 294.79,261.99 L 297.49,260.94 L 299.00,260.42 L 308.09,256.79 L 314.24,253.81 L 317.33,252.08 L 323.49,248.46 L 326.52,246.45 L 332.53,242.31 L 335.44,240.08 L 341.17,235.51 L 343.89,233.11 L 349.20,228.24 L 351.65,225.72 L 356.40,220.64 L 358.52,218.06 L 362.57,212.89 L 364.28,210.30 L 366.00,207.55 L 367.40,205.20 L 368.18,203.85 L 371.46,198.08 L 373.06,195.16 L 374.63,192.28 L 375.33,190.96 L 376.67,188.43 L 377.20,187.39 L 378.15,185.48 L 378.44,184.85 L 378.69,184.28 L 378.76,184.09 L 378.85,183.77 L 378.84,183.73 L 378.93,183.36 L 379.09,182.87 L 379.22,182.54 L 379.83,180.96 L 380.23,179.99 L 380.98,177.84 L 381.59,175.80 L 381.93,174.58 L 383.34,169.24 L 383.96,166.49 L 384.90,162.49 L 385.50,160.03 L 385.78,158.99 L 386.30,157.05 L 386.50,156.36 L 386.87,155.19 L 386.97,154.99 L 387.22,154.14 L 387.34,153.38 L 387.36,152.95 L 387.37,151.08 L 387.24,150.17 L 387.08,148.51 L 387.13,147.71 L 387.24,147.43 L 387.52,146.93 L 387.76,146.76 L 388.32,146.47 L 388.71,146.36 L 389.68,145.84 M 221.98,263.62 L 223.38,263.83 L 224.21,264.08 L 225.90,264.67 L 226.60,265.03 L 227.27,265.40 L 227.53,265.58 L 227.97,265.96 L 228.08,266.14 L 228.90,266.74 L 229.83,267.12 L 230.43,267.29 L 231.48,267.54 L 231.17,267.48 L 229.08,267.09 L 228.07,266.89 L 226.25,266.50 L 225.37,266.31 L 223.83,265.94 L 223.10,265.75 L 221.83,265.39 L 221.24,265.22 L 220.25,264.87 L 219.10,264.37 L 218.38,263.99 L 217.70,263.72 L 219.08,264.03 L 219.82,264.11 L 220.48,264.16 L 220.68,264.14 L 221.00,264.07 L 221.00,263.97 L 221.27,263.67 L 221.68,263.60 M 207.68,260.46 L 209.01,260.90 L 210.00,261.33 L 213.33,262.55 L 214.10,262.78 L 213.65,262.66 L 211.32,261.85 L 210.54,261.53 L 208.83,260.94 L 206.82,260.36 L 206.08,260.22 M 188.38,251.39 L 189.17,251.65 L 190.65,252.00 L 191.35,252.00 L 193.83,252.37 L 195.57,252.98 L 196.44,253.44 L 198.19,254.48 L 199.03,255.13 L 200.69,256.54 L 201.46,257.36 L 203.64,259.26 L 204.22,259.64 L 204.21,259.63 L 203.24,259.30 L 201.06,258.39 L 199.93,257.89 L 197.48,256.69 L 196.23,256.06 L 193.60,254.61 L 190.93,253.11 L 187.51,250.93 M 174.90,241.94 L 176.51,243.14 L 177.36,243.80 L 177.49,243.90 L 177.36,243.81 L 176.51,243.14 L 174.90,241.94 L 174.26,241.46 M 157.31,226.35 L 158.58,227.00 L 159.05,227.00 L 160.52,227.41 L 161.50,228.05 L 161.93,228.49 L 162.75,229.46 L 163.04,230.01 L 163.55,231.14 L 163.64,231.72 L 163.94,232.54 L 164.33,233.22 L 164.59,233.60 L 165.82,235.22 L 166.09,235.52 L 164.26,233.75 L 163.26,232.77 L 161.17,230.64 L 160.13,229.58 L 158.13,227.48 L 157.17,226.45 L 156.80,226.04 M 153.18,221.69 L 153.00,221.26 L 153.00,221.22 L 153.21,221.73 M 122.67,154.88 L 123.48,155.61 L 124.09,155.84 L 125.14,156.29 L 125.52,156.55 L 125.56,156.69 L 125.54,156.99 L 125.39,157.18 L 124.98,157.60 L 124.64,157.88 L 123.65,159.42 L 123.63,159.64 L 123.57,159.33 L 123.37,158.53 L 122.96,156.51 L 122.76,155.45 L 122.66,154.87 M 121.58,145.41 L 122.39,146.85 L 123.00,147.23 L 124.37,148.39 L 124.88,149.18 L 124.92,149.55 L 124.87,150.28 L 124.64,150.59 L 124.02,151.16 L 123.50,151.36 L 122.33,152.29 L 122.26,152.47 L 122.18,151.97 L 121.85,149.64 L 121.49,146.44 L 121.35,145.00 L 121.34,144.85 M 121.33,139.95 L 121.34,139.87 L 121.65,139.02 L 122.42,138.07 L 122.50,138.00 M 123.94,135.00 L 123.82,136.10 L 123.58,136.61 L 122.98,137.60 L 122.92,137.65 L 123.55,136.65 L 123.80,136.13 L 123.94,135.02 L 123.94,134.84 M 389.80,123.99 L 389.89,124.23 L 390.05,124.87 L 390.21,125.57 L 390.42,127.57 L 390.51,128.64 L 390.61,131.15 L 390.64,132.45 L 390.63,134.60 L 390.55,130.63 L 390.41,128.08 L 390.31,127.08 L 390.09,125.26 L 389.95,124.65 L 389.68,123.76 M 123.94,134.45 L 123.94,134.45 L 123.91,134.34 M 387.94,118.69 L 388.35,120.44 L 388.56,121.26 L 388.96,122.48 L 389.49,123.50 L 389.60,123.59 L 389.62,123.63 L 389.48,123.50 L 388.95,122.48 L 388.55,121.26 L 388.35,120.44 L 387.94,118.69 L 387.75,117.69 L 387.38,115.60 L 387.75,117.69 M 123.46,118.05 L 123.46,118.03 L 123.55,117.19 M 123.61,116.58 L 123.61,116.56 L 123.76,116.31 M 124.91,114.66 L 124.59,114.93 L 124.59,114.93 L 124.91,114.66 M 126.10,109.02 L 125.93,109.98 L 125.79,110.88 L 125.75,111.24 L 125.72,111.91 L 125.75,112.15 L 125.50,113.51 L 125.55,112.27 L 125.40,111.88 L 125.48,110.69 L 126.06,108.89 L 126.20,108.63 M 233.69,2.36 L 236.32,2.94 L 237.19,3.23 L 239.14,3.37 L 240.12,3.39 L 241.37,3.17 L 239.50,3.70 L 238.36,3.90 L 236.07,4.20 L 235.00,4.18 L 231.36,4.56 L 230.16,4.84 L 229.63,5.01 L 228.62,5.36 L 228.24,5.56 L 225.84,6.57 L 224.34,6.99 L 223.90,6.99 L 222.53,7.23 L 221.14,7.60 L 220.27,7.87 L 218.42,8.46 L 217.37,8.82 L 215.20,9.58 L 214.05,10.01 L 209.34,11.80 L 207.12,12.72 L 204.95,13.64 L 203.98,14.07 L 202.13,14.93 L 201.37,15.31 L 199.33,16.27 L 198.09,16.78 L 197.57,16.96 L 196.60,17.27 L 196.27,17.32 L 195.71,17.37 L 195.62,17.29 L 195.18,17.16 L 195.00,17.43 L 195.00,17.72 L 194.70,18.26 L 194.24,18.68 L 193.90,18.92 L 192.28,19.88 L 191.25,20.30 L 188.79,21.48 L 186.90,22.54 L 185.86,23.19 L 183.71,24.57 L 182.56,25.36 L 180.23,27.00 L 179.02,27.89 L 174.07,31.68 L 171.59,33.77 L 166.68,38.02 L 164.44,40.18 L 157.22,47.79 L 152.62,53.34 L 150.47,56.30 L 146.26,62.32 L 144.35,65.45 L 140.65,71.78 L 139.04,75.00 L 136.61,80.11 L 134.99,83.77 L 134.20,85.67 L 131.11,93.33 L 129.83,96.93 L 128.59,100.47 L 128.07,102.08 L 127.63,103.48 L 128.54,99.43 L 128.86,97.76 L 129.82,94.16 L 130.35,92.32 L 131.67,88.46 L 132.38,86.50 L 134.03,82.49 L 134.89,80.48 L 136.81,76.42 L 138.79,72.38 L 143.33,64.62 L 144.50,62.74 L 146.91,59.21 L 150.60,54.33 L 151.53,53.19 L 153.00,51.08 L 153.31,50.61 L 153.73,49.86 L 154.00,49.13 L 154.00,48.99 L 154.31,48.48 L 154.50,48.20 L 155.14,47.48 L 157.88,44.97 L 158.42,44.54 L 159.64,43.41 L 160.27,42.81 L 161.56,41.47 L 162.20,40.79 L 163.40,39.39 L 164.95,37.43 L 165.82,36.21 L 167.60,34.30 L 168.01,33.90 L 168.72,33.35 L 169.51,33.00 L 169.89,33.00 L 170.86,32.47 L 172.19,31.18 L 172.44,30.84 L 173.30,29.99 L 173.79,29.53 L 175.08,28.49 L 175.77,27.96 L 177.41,26.79 L 178.26,26.19 L 180.16,24.94 L 182.11,23.68 L 186.46,21.15 L 193.00,17.74 L 194.46,17.05 L 197.14,15.80 L 198.44,15.19 L 200.82,14.09 L 201.97,13.56 L 204.05,12.62 L 205.05,12.17 L 206.85,11.38 L 207.71,11.00 L 209.23,10.36 L 209.96,10.05 L 211.21,9.55 L 211.80,9.32 L 212.79,8.96 L 214.00,8.57 L 215.28,8.22 L 217.68,7.35 L 218.39,7.07 L 220.23,6.30 L 220.74,6.09 L 221.93,5.58 L 224.00,4.68 L 225.44,4.05 L 227.85,3.18 L 229.00,2.81 L 230.97,2.42 L 231.93,2.29 M 280.74,2.68 L 282.31,2.76 L 285.16,3.22 L 286.53,3.49 L 288.17,4.08 L 287.71,4.06 L 287.43,4.23 L 286.94,4.68 L 286.80,5.09 L 286.48,5.40 L 286.12,5.42 L 285.87,5.34 L 284.74,4.80 L 284.00,4.20 L 282.55,3.23 L 281.55,2.82 L 280.96,2.71 L 280.68,2.68 M 268.75,1.61 L 269.06,1.91 L 269.79,2.35 L 270.19,2.55 L 271.20,2.77 L 271.76,2.86 L 273.17,2.90 L 273.86,2.86 L 273.20,2.90 L 271.77,2.88 L 271.22,2.79 L 270.21,2.57 L 269.81,2.38 L 269.08,1.93 L 268.76,1.62 L 267.79,1.01 M 245.00,0.88 L 244.95,0.98 L 245.00,0.84 M 267.47,0.82 L 267.48,0.82 L 266.99,0.68 M 152.42,220.11 L 151.01,219.01 L 152.42,220.10 L 153.00,220.90 L 153.00,220.94 M 125.34,169.07 L 125.13,168.16 L 125.00,167.11 L 125.00,166.84 L 124.89,165.90 L 124.81,165.37 L 124.58,164.02 L 124.12,161.87 L 124.72,164.12 L 125.00,165.92 L 125.00,166.60 L 125.13,167.85 L 125.34,168.87 L 125.48,169.43 L 126.20,171.76 L 125.48,169.58 M 249.26,0.18 L 248.25,0.26 L 246.44,0.43 L 245.87,0.54 L 245.37,0.65 L 245.23,0.70 L 245.00,0.82 L 245.00,0.78 L 245.23,0.67 L 245.37,0.62 L 245.87,0.51 L 246.44,0.41 L 248.25,0.25 L 249.26,0.17 L 251.77,0.07 L 256.07,0.00 L 251.77,0.07 Z" fill="rgba(46,122,114,1)"/>
<path d="M 292.70,299.89 L 294.25,299.97 L 294.39,300.00 L 294.00,300.00 L 291.62,300.07 L 290.47,300.21 L 290.08,300.32 L 289.42,300.59 L 289.25,300.79 L 289.00,301.22 L 289.00,301.50 L 289.08,302.02 L 289.25,302.21 L 289.69,302.56 L 290.08,302.67 L 290.98,302.87 L 291.62,302.92 L 293.06,303.00 L 294.00,303.00 L 296.38,302.92 L 297.53,302.79 L 297.92,302.67 L 298.58,302.41 L 298.75,302.21 L 299.00,301.78 L 299.00,301.50 L 298.86,301.09 L 299.45,301.32 L 301.11,302.24 L 301.82,302.77 L 302.81,303.43 L 303.24,303.70 L 303.84,303.88 L 304.11,303.92 L 304.51,303.64 L 305.12,302.74 L 305.43,302.20 L 306.39,301.51 L 306.90,301.22 L 308.04,301.05 L 308.40,301.04 L 307.44,301.44 L 307.00,302.09 L 307.00,302.50 L 307.17,303.29 L 307.44,303.56 L 308.09,304.00 L 308.50,304.00 L 309.56,303.56 L 310.00,302.91 L 310.00,302.50 L 309.56,301.44 L 309.35,301.30 L 309.63,301.40 L 310.66,302.56 L 310.78,302.87 L 311.18,303.30 L 311.42,303.49 L 312.18,303.68 L 312.62,303.74 L 313.90,303.71 L 316.58,303.45 L 317.72,303.30 L 319.44,303.18 L 320.23,303.15 L 321.45,303.29 L 322.03,303.40 L 323.05,303.86 L 324.68,304.96 L 325.47,305.59 L 326.76,306.22 L 327.04,306.32 L 327.46,306.34 L 327.81,306.08 L 327.92,305.75 L 328.47,305.70 L 329.65,306.51 L 330.06,306.92 L 331.49,307.73 L 333.82,308.57 L 334.15,308.64 L 335.22,308.93 L 335.82,309.10 L 337.37,309.57 L 338.20,309.82 L 340.14,310.44 L 341.15,310.76 L 343.39,311.50 L 345.68,312.26 L 350.79,314.00 L 358.50,316.72 L 359.29,317.01 L 361.23,317.83 L 362.25,318.27 L 364.56,319.37 L 365.76,319.94 L 368.37,321.27 L 369.70,321.96 L 372.50,323.46 L 375.33,325.00 L 381.18,328.39 L 389.50,333.56 L 393.00,335.85 L 399.80,340.83 L 403.17,343.39 L 409.68,348.85 L 412.89,351.65 L 419.05,357.56 L 422.09,360.57 L 427.88,366.88 L 430.72,370.08 L 436.10,376.75 L 438.73,380.12 L 443.64,387.10 L 446.04,390.63 L 450.46,397.88 L 456.50,409.00 L 457.15,410.31 L 458.47,412.82 L 459.13,414.04 L 460.36,416.20 L 460.95,417.21 L 461.94,418.78 L 462.99,420.18 L 463.25,420.42 L 463.83,421.22 L 464.12,421.66 L 464.75,422.81 L 465.08,423.43 L 465.75,424.90 L 466.10,425.68 L 466.81,427.43 L 467.53,429.25 L 469.03,433.59 L 469.79,435.85 L 471.29,440.83 L 472.03,443.37 L 473.45,448.69 L 474.13,451.37 L 475.37,456.73 L 475.96,459.38 L 476.93,464.48 L 477.99,471.50 L 478.15,472.88 L 478.52,475.53 L 478.72,476.82 L 479.11,479.11 L 479.31,480.19 L 479.69,481.86 L 480.17,483.38 L 480.33,483.68 L 480.53,484.69 L 480.40,484.55 L 480.21,484.52 L 479.78,484.53 L 479.50,484.64 L 478.44,485.75 L 478.00,486.95 L 478.00,487.61 L 478.15,488.94 L 478.41,489.35 L 479.04,490.00 L 479.50,490.00 L 480.15,489.81 L 480.50,489.50 L 480.62,489.26 L 480.69,489.09 L 480.46,492.34 L 480.27,494.30 L 479.63,498.01 L 479.45,498.87 L 479.05,500.34 L 478.40,502.00 L 478.21,502.34 L 477.60,503.27 L 477.26,503.76 L 476.44,504.87 L 473.66,508.25 L 470.29,512.00 L 467.53,512.00 L 469.13,511.93 L 469.87,511.80 L 470.09,511.68 L 470.43,511.42 L 470.47,511.22 L 470.47,510.79 L 470.36,510.50 L 469.28,509.44 L 468.13,509.00 L 467.50,509.00 L 465.72,509.44 L 464.80,510.09 L 464.64,510.50 L 464.49,511.03 L 464.53,511.22 L 464.69,511.57 L 464.91,511.68 L 465.45,511.88 L 465.87,511.93 L 466.82,512.00 L 256.39,511.90 L 46.74,511.80 L 46.93,511.77 L 47.13,511.66 L 47.45,511.41 L 47.48,511.22 L 47.47,510.79 L 47.36,510.50 L 46.38,509.44 L 45.37,509.00 L 44.83,509.00 L 43.62,509.27 L 43.29,509.66 L 43.45,509.91 L 43.48,510.71 L 43.10,511.20 L 42.76,511.34 L 42.51,511.47 L 42.52,511.54 L 42.64,511.66 L 42.81,511.72 L 43.19,511.80 L 42.50,511.80 L 38.85,508.15 L 38.22,507.52 L 37.14,506.37 L 36.62,505.81 L 35.78,504.77 L 34.98,503.76 L 34.01,501.89 L 33.61,500.96 L 33.33,499.00 L 33.54,495.60 L 33.67,494.75 L 33.78,493.45 L 33.82,492.87 L 33.73,492.03 L 33.66,491.66 L 33.35,491.17 L 32.59,490.67 L 32.04,490.46 L 31.61,489.80 L 31.94,489.85 L 32.18,489.77 L 33.08,488.67 L 33.43,487.41 L 33.47,486.71 L 33.45,485.32 L 33.29,484.78 L 33.11,484.27 L 32.98,484.09 L 32.69,483.80 L 32.50,483.75 L 32.09,483.92 L 32.04,483.98 L 32.99,482.21 L 33.37,481.69 L 33.97,480.47 L 34.24,479.82 L 34.65,478.17 L 34.84,477.27 L 35.11,474.96 L 35.42,470.50 L 35.53,468.24 L 36.06,463.34 L 36.37,460.90 L 37.16,456.32 L 37.37,455.24 L 37.80,453.28 L 38.02,452.35 L 38.46,450.79 L 38.68,450.06 L 39.10,449.00 L 39.70,448.09 L 39.75,448.05 L 39.94,447.73 L 40.05,447.53 L 40.32,446.91 L 40.62,446.23 L 41.43,444.15 L 41.86,443.01 L 42.87,440.21 L 44.47,435.50 L 45.33,432.91 L 47.33,427.60 L 48.37,424.92 L 50.71,419.48 L 51.92,416.75 L 54.56,411.28 L 55.92,408.54 L 58.81,403.10 L 60.29,400.40 L 63.40,395.08 L 64.97,392.44 L 68.25,387.33 L 69.91,384.80 L 73.31,379.97 L 78.50,373.12 L 79.85,371.43 L 82.93,367.89 L 84.53,366.11 L 88.03,362.44 L 89.83,360.60 L 93.65,356.89 L 95.59,355.04 L 99.64,351.38 L 103.73,347.74 L 112.18,340.94 L 114.28,339.31 L 118.44,336.28 L 124.50,332.16 L 125.34,331.62 L 127.25,330.47 L 128.24,329.89 L 130.40,328.67 L 132.61,327.45 L 137.61,324.88 L 140.17,323.59 L 145.58,321.02 L 148.30,319.74 L 153.77,317.32 L 156.48,316.15 L 161.63,314.04 L 164.14,313.04 L 168.62,311.40 L 169.68,311.02 L 171.61,310.39 L 172.54,310.10 L 174.18,309.64 L 174.96,309.43 L 176.26,309.16 L 177.78,309.00 L 178.36,309.00 L 179.45,308.69 L 180.53,307.95 L 180.71,307.66 L 181.47,307.26 L 182.84,307.07 L 183.81,307.16 L 185.44,307.18 L 186.20,307.17 L 187.38,306.97 L 187.90,306.84 L 188.58,306.44 L 189.00,305.61 L 189.00,305.22 L 189.40,304.53 L 189.64,304.20 L 190.35,303.74 L 190.72,303.54 L 191.49,303.43 L 192.46,303.79 L 192.55,303.88 L 193.00,304.06 L 193.26,304.15 L 193.99,304.32 L 196.74,304.68 L 197.41,304.72 L 198.50,304.68 L 199.02,304.64 L 199.86,304.41 L 200.26,304.28 L 200.91,303.85 L 201.74,302.96 L 202.15,302.37 L 203.08,301.61 L 203.28,301.48 L 203.00,302.09 L 203.00,302.50 L 203.11,303.29 L 203.29,303.56 L 203.72,304.00 L 204.00,304.00 L 204.71,303.56 L 205.00,302.91 L 205.00,302.50 L 204.71,301.44 L 204.37,301.10 L 204.50,301.07 L 204.96,301.03 L 205.76,301.36 L 206.64,302.50 L 206.84,303.02 L 207.43,303.63 L 207.76,303.87 L 208.56,303.92 L 208.98,303.87 L 209.95,303.37 L 211.50,302.00 L 211.79,301.68 L 212.69,301.15 L 213.18,300.90 L 213.19,300.90 L 213.00,301.22 L 213.00,301.50 L 213.08,302.02 L 213.25,302.21 L 213.69,302.56 L 214.08,302.67 L 214.98,302.87 L 215.62,302.92 L 217.06,303.00 L 218.00,303.00 L 220.38,302.92 L 221.53,302.79 L 221.92,302.67 L 222.58,302.41 L 222.75,302.21 L 223.00,301.78 L 223.00,301.50 L 222.75,300.79 L 222.31,300.44 L 221.92,300.32 L 221.02,300.13 L 220.38,300.07 L 218.94,300.00 L 218.00,300.00 L 216.99,300.03 L 218.58,299.89 L 219.30,299.86 L 220.68,299.92 L 221.35,299.97 L 222.52,300.20 L 223.06,300.33 L 223.90,300.72 L 224.64,301.50 L 224.70,301.66 L 225.04,301.93 L 225.26,302.06 L 226.01,302.28 L 226.46,302.38 L 227.77,302.54 L 228.50,302.62 L 230.51,302.73 L 231.61,302.79 L 234.44,302.86 L 235.97,302.90 L 239.78,302.95 L 240.80,302.96 L 243.04,302.97 L 244.20,302.98 L 246.73,302.99 L 248.03,302.99 L 250.87,303.00 L 255.50,303.00 L 257.12,303.00 L 260.13,303.00 L 261.59,303.00 L 264.27,302.99 L 265.57,302.98 L 267.96,302.97 L 269.12,302.97 L 271.22,302.95 L 273.26,302.93 L 276.56,302.86 L 278.09,302.83 L 280.49,302.73 L 281.60,302.68 L 283.23,302.54 L 283.97,302.47 L 284.99,302.28 L 285.43,302.18 L 285.96,301.93 L 286.36,301.50 L 286.48,301.19 L 287.12,300.70 L 287.50,300.47 L 288.55,300.17 L 289.12,300.03 L 290.47,299.90 L 291.17,299.86 M 31.18,486.86 L 31.09,487.96 L 31.07,487.35 L 31.10,486.55 L 31.26,486.00 M 31.41,485.48 L 31.61,484.79 L 31.66,484.70 M 245.67,0.63 L 245.76,0.66 L 246.48,1.29 L 246.60,1.83 L 246.45,2.09 L 246.56,2.34 L 246.98,2.45 L 248.05,2.66 L 248.90,2.74 L 250.79,2.89 L 251.99,2.93 L 254.53,3.00 L 256.00,3.00 L 260.04,2.93 L 262.28,2.82 L 263.13,2.74 L 264.62,2.56 L 265.03,2.45 L 265.63,2.21 L 265.55,2.08 L 265.66,1.29 L 266.25,0.82 L 266.74,0.69 L 266.82,0.62 L 267.48,0.82 L 268.76,1.62 L 269.08,1.93 L 269.81,2.38 L 270.21,2.57 L 271.22,2.79 L 271.77,2.88 L 273.20,2.90 L 275.98,2.74 L 277.12,2.63 L 278.88,2.56 L 279.69,2.56 L 280.96,2.71 L 281.55,2.82 L 282.55,3.23 L 284.00,4.20 L 284.74,4.80 L 285.87,5.34 L 286.12,5.42 L 286.48,5.40 L 286.80,5.09 L 286.94,4.68 L 287.43,4.23 L 287.71,4.06 L 288.45,4.08 L 288.85,4.15 L 289.81,4.63 L 291.44,5.86 L 291.72,6.12 L 292.83,6.81 L 293.46,7.17 L 295.10,8.00 L 301.00,10.51 L 304.39,11.76 L 310.95,14.63 L 314.20,16.11 L 320.45,19.43 L 323.54,21.14 L 329.47,24.89 L 332.38,26.81 L 337.94,30.96 L 340.67,33.08 L 345.83,37.61 L 348.36,39.92 L 353.09,44.81 L 355.41,47.30 L 359.69,52.52 L 365.56,60.71 L 366.44,62.06 L 368.06,64.56 L 368.85,65.78 L 370.26,67.99 L 370.94,69.05 L 372.14,70.97 L 372.71,71.88 L 373.69,73.49 L 374.15,74.26 L 374.91,75.55 L 375.26,76.16 L 375.79,77.13 L 376.03,77.58 L 376.33,78.23 L 376.52,78.83 L 376.52,78.92 L 376.70,79.44 L 376.81,79.75 L 377.17,80.62 L 378.72,84.00 L 379.10,84.80 L 379.92,86.76 L 380.33,87.79 L 381.17,90.14 L 382.01,92.56 L 383.64,98.12 L 384.43,100.95 L 385.78,106.67 L 386.09,108.07 L 386.62,110.76 L 387.23,114.50 L 387.38,115.60 L 387.75,117.69 L 387.94,118.69 L 388.35,120.44 L 388.55,121.26 L 388.95,122.48 L 389.48,123.50 L 389.65,123.66 L 389.95,124.65 L 390.09,125.26 L 390.20,126.14 L 389.87,126.00 L 389.44,126.00 L 388.52,126.29 L 388.33,126.72 L 388.50,127.00 L 388.93,127.52 L 389.21,127.71 L 389.80,128.00 L 390.06,128.00 L 390.39,127.85 L 390.41,128.08 L 390.55,130.63 L 390.64,135.18 L 390.64,136.40 L 390.64,138.44 L 390.63,139.41 L 390.60,140.98 L 390.59,141.40 L 390.32,141.00 L 390.06,141.00 L 389.15,141.30 L 388.66,141.76 L 388.50,142.06 L 388.25,142.70 L 388.25,143.03 L 388.32,143.71 L 388.50,144.00 L 389.05,144.70 L 389.33,144.85 L 389.89,145.02 L 390.14,144.93 L 390.26,144.84 L 390.23,145.02 L 389.78,145.79 L 388.71,146.36 L 388.32,146.47 L 387.76,146.76 L 387.52,146.93 L 387.24,147.43 L 387.13,147.71 L 387.08,148.51 L 387.24,150.17 L 387.37,151.08 L 387.36,152.95 L 387.34,153.38 L 387.22,154.14 L 386.97,154.99 L 386.87,155.19 L 386.50,156.36 L 386.30,157.05 L 385.78,158.99 L 385.50,160.03 L 384.90,162.49 L 383.96,166.49 L 383.34,169.24 L 381.93,174.58 L 381.59,175.80 L 380.98,177.84 L 380.23,179.99 L 379.83,180.96 L 379.22,182.54 L 379.09,182.87 L 378.93,183.36 L 378.84,183.73 L 378.85,183.77 L 378.76,184.09 L 378.69,184.28 L 378.44,184.85 L 378.15,185.48 L 377.20,187.39 L 376.67,188.43 L 375.33,190.96 L 374.63,192.28 L 373.06,195.16 L 371.46,198.08 L 368.18,203.85 L 367.40,205.20 L 366.00,207.55 L 364.28,210.30 L 362.57,212.89 L 358.52,218.06 L 356.40,220.64 L 351.65,225.72 L 349.20,228.24 L 343.89,233.11 L 341.17,235.51 L 335.44,240.08 L 332.53,242.31 L 326.52,246.45 L 323.49,248.46 L 317.33,252.08 L 314.24,253.81 L 308.09,256.79 L 299.00,260.42 L 297.49,260.94 L 294.79,261.99 L 294.20,262.24 L 293.27,262.66 L 292.41,263.14 L 292.11,263.37 L 291.47,263.57 L 290.75,263.42 L 290.68,263.34 L 290.16,263.33 L 289.85,263.34 L 288.96,263.50 L 285.43,264.47 L 284.12,264.92 L 281.68,265.46 L 281.13,265.56 L 280.24,265.65 L 279.35,265.58 L 278.99,265.44 L 278.11,265.80 L 276.98,267.04 L 276.66,267.63 L 276.01,268.39 L 275.67,268.70 L 274.94,268.91 L 274.57,268.94 L 273.73,268.59 L 272.30,267.44 L 271.95,267.09 L 271.40,266.67 L 271.14,266.50 L 270.64,266.47 L 270.39,266.50 L 269.78,266.88 L 268.56,267.94 L 267.92,268.55 L 266.48,269.23 L 266.48,269.21 L 266.47,268.78 L 266.36,268.50 L 265.43,267.44 L 264.49,267.00 L 264.00,267.00 L 262.57,267.44 L 261.80,268.09 L 261.64,268.50 L 261.49,269.02 L 261.52,269.21 L 261.65,269.55 L 261.83,269.67 L 262.28,269.87 L 262.64,269.92 L 263.04,269.96 L 262.57,269.99 L 260.89,269.66 L 259.00,268.50 L 258.66,268.09 L 257.56,267.44 L 255.85,267.00 L 255.32,267.00 L 254.33,267.44 L 253.36,268.50 L 253.26,268.76 L 252.79,269.18 L 252.52,269.37 L 251.78,269.66 L 250.98,269.91 L 248.92,270.00 L 248.19,269.99 L 249.32,269.90 L 249.96,269.74 L 250.18,269.62 L 250.82,269.09 L 250.77,268.76 L 250.44,268.10 L 249.92,267.82 L 248.65,267.30 L 247.67,267.18 L 246.46,267.13 L 245.84,267.21 L 245.63,267.31 L 245.25,267.55 L 245.15,267.74 L 245.00,268.16 L 245.00,268.43 L 245.06,268.94 L 245.18,269.14 L 245.46,269.45 L 245.33,269.42 L 244.49,269.04 L 244.09,268.84 L 243.48,268.34 L 242.91,267.77 L 242.06,267.35 L 241.13,267.78 L 241.02,267.96 L 240.36,268.19 L 239.97,268.28 L 238.87,268.36 L 237.68,268.40 L 234.67,268.12 L 233.15,267.93 L 230.43,267.29 L 229.83,267.12 L 228.90,266.74 L 228.08,266.14 L 227.97,265.96 L 227.53,265.58 L 227.27,265.40 L 226.60,265.03 L 225.90,264.67 L 224.21,264.08 L 223.38,263.83 L 221.98,263.62 L 221.68,263.60 L 221.27,263.67 L 221.00,263.97 L 221.00,264.07 L 220.68,264.14 L 220.48,264.16 L 219.82,264.11 L 219.08,264.03 L 216.93,263.55 L 215.79,263.28 L 213.33,262.55 L 210.00,261.33 L 209.01,260.90 L 207.68,260.46 L 205.45,260.12 L 205.24,260.11 L 204.66,259.87 L 204.35,259.72 L 203.64,259.26 L 201.46,257.36 L 200.69,256.54 L 199.03,255.13 L 198.19,254.48 L 196.44,253.44 L 195.57,252.98 L 193.83,252.37 L 191.35,252.00 L 190.65,252.00 L 189.17,251.65 L 188.38,251.39 L 186.47,250.38 L 185.95,250.07 L 184.76,249.30 L 184.14,248.88 L 182.71,247.87 L 181.97,247.33 L 180.27,246.05 L 177.36,243.80 L 176.51,243.14 L 174.90,241.94 L 174.12,241.36 L 172.75,240.41 L 172.11,239.97 L 171.14,239.38 L 170.30,239.00 L 170.13,239.00 L 169.63,238.76 L 169.36,238.61 L 168.72,238.11 L 168.05,237.57 L 166.55,236.02 L 165.82,235.22 L 164.59,233.60 L 164.33,233.22 L 163.94,232.54 L 163.64,231.72 L 163.55,231.14 L 163.04,230.01 L 162.75,229.46 L 161.93,228.49 L 161.50,228.05 L 160.52,227.41 L 159.05,227.00 L 158.58,227.00 L 157.31,226.35 L 156.65,225.95 L 155.32,224.79 L 154.68,224.18 L 153.68,222.88 L 153.00,221.22 L 153.00,220.90 L 152.42,220.10 L 151.01,219.01 L 150.46,218.71 L 149.17,217.41 L 147.53,215.07 L 147.12,214.27 L 146.10,212.64 L 144.74,210.84 L 144.45,210.54 L 143.74,209.65 L 143.37,209.17 L 142.57,208.00 L 141.76,206.79 L 140.13,204.05 L 139.75,203.38 L 139.06,202.11 L 138.74,201.50 L 138.24,200.43 L 138.02,199.94 L 137.76,199.20 L 137.74,198.60 L 137.90,198.43 L 137.80,198.18 L 137.11,198.00 L 136.77,198.00 L 136.42,197.71 L 136.50,197.00 L 136.67,196.72 L 136.61,196.29 L 136.00,196.00 L 135.69,196.00 L 135.39,195.71 L 135.50,195.00 L 135.67,194.72 L 135.63,194.29 L 135.06,194.00 L 134.77,194.00 L 134.38,193.78 L 134.22,193.25 L 134.26,193.15 L 134.10,192.52 L 133.99,192.16 L 133.59,191.10 L 133.37,190.54 L 132.79,189.19 L 131.76,187.00 L 131.03,185.49 L 129.75,182.38 L 129.47,181.66 L 129.05,180.40 L 128.69,179.00 L 128.64,178.66 L 128.41,177.74 L 128.28,177.25 L 127.93,176.14 L 126.65,172.78 L 126.20,171.76 L 125.48,169.43 L 125.34,168.87 L 125.13,167.85 L 125.00,166.60 L 125.00,165.92 L 124.72,164.12 L 124.05,161.64 L 123.88,161.17 L 123.68,160.40 L 123.61,160.03 L 123.65,159.42 L 124.64,157.88 L 124.98,157.60 L 125.39,157.18 L 125.54,156.99 L 125.56,156.69 L 125.52,156.55 L 125.14,156.29 L 124.09,155.84 L 123.48,155.61 L 122.80,155.00 L 122.94,155.00 L 123.79,154.71 L 124.33,154.28 L 124.50,154.00 L 124.48,153.29 L 123.99,153.00 L 123.56,153.00 L 122.46,153.29 L 122.08,153.65 L 122.06,153.58 L 122.01,153.13 L 122.33,152.29 L 123.50,151.36 L 124.02,151.16 L 124.64,150.59 L 124.87,150.28 L 124.92,149.55 L 124.88,149.18 L 124.37,148.39 L 123.00,147.23 L 122.39,146.85 L 121.78,145.76 L 121.84,145.80 L 122.28,146.00 L 122.56,146.00 L 123.28,145.83 L 123.61,145.54 L 123.71,145.29 L 123.86,144.72 L 123.88,144.31 L 123.87,143.41 L 123.81,142.83 L 123.56,141.31 L 123.33,140.50 L 123.18,140.19 L 122.88,139.66 L 122.72,139.49 L 122.40,139.23 L 122.24,139.21 L 121.92,139.23 L 121.77,139.35 L 121.52,139.63 L 122.50,138.00 L 122.98,137.60 L 123.58,136.61 L 123.82,136.10 L 123.94,135.00 L 123.94,134.45 L 123.58,133.39 L 122.50,132.00 L 122.01,131.59 L 121.40,130.23 L 121.16,129.49 L 121.09,128.41 L 121.21,129.03 L 121.32,129.26 L 121.55,129.65 L 121.71,129.73 L 122.04,129.82 L 122.25,129.75 L 123.13,128.77 L 123.50,127.64 L 123.50,127.00 L 123.13,125.23 L 122.59,124.36 L 122.25,124.25 L 122.02,124.26 L 122.59,123.26 L 123.11,122.75 L 123.64,121.38 L 123.63,118.92 L 123.46,118.05 L 123.60,116.59 L 124.51,114.99 L 124.91,114.66 L 125.47,113.67 L 125.75,112.15 L 125.72,111.91 L 125.75,111.24 L 125.79,110.88 L 125.93,109.98 L 126.10,109.02 L 126.74,106.52 L 127.10,105.19 L 128.07,102.08 L 128.59,100.47 L 129.83,96.93 L 131.11,93.33 L 134.20,85.67 L 134.99,83.77 L 136.61,80.11 L 139.04,75.00 L 140.65,71.78 L 144.35,65.45 L 146.26,62.32 L 150.47,56.30 L 152.62,53.34 L 157.22,47.79 L 164.44,40.18 L 166.68,38.02 L 171.59,33.77 L 174.07,31.68 L 179.02,27.89 L 180.23,27.00 L 182.56,25.36 L 183.71,24.57 L 185.86,23.19 L 186.90,22.54 L 188.79,21.48 L 191.25,20.30 L 192.28,19.88 L 193.90,18.92 L 194.24,18.68 L 194.70,18.26 L 195.00,17.72 L 195.00,17.43 L 195.18,17.16 L 195.62,17.29 L 195.71,17.37 L 196.27,17.32 L 196.60,17.27 L 197.57,16.96 L 198.09,16.78 L 199.33,16.27 L 201.37,15.31 L 202.13,14.93 L 203.98,14.07 L 204.95,13.64 L 207.12,12.72 L 209.34,11.80 L 214.05,10.01 L 215.20,9.58 L 217.37,8.82 L 218.42,8.46 L 220.27,7.87 L 221.14,7.60 L 222.53,7.23 L 223.90,6.99 L 224.34,6.99 L 225.84,6.57 L 228.24,5.56 L 228.62,5.36 L 229.63,5.01 L 230.16,4.84 L 231.36,4.56 L 235.00,4.18 L 236.07,4.20 L 238.36,3.90 L 239.50,3.70 L 241.60,3.10 L 242.58,2.78 L 244.04,2.02 L 244.34,1.83 L 244.75,1.44 L 245.00,0.88 L 245.00,0.82 L 245.23,0.70 L 245.37,0.65 L 245.75,0.56 M 121.00,141.85 L 121.00,142.42 L 121.01,142.82 L 121.00,142.75 L 120.95,141.80 L 121.09,141.07 M 121.38,139.93 L 121.22,140.38 L 121.29,140.01 L 121.46,139.73 M 259.11,0.02 L 260.03,0.03 L 261.62,0.07 L 262.37,0.10 L 263.65,0.17 L 264.25,0.21 L 265.26,0.32 L 266.21,0.44 L 266.40,0.50 L 266.00,0.45 L 265.66,0.43 L 264.92,0.38 L 264.46,0.36 L 262.37,0.27 L 261.02,0.25 L 258.15,0.20 L 256.50,0.19 L 251.94,0.22 L 249.37,0.28 L 248.39,0.32 L 247.48,0.36 L 247.11,0.39 L 246.44,0.44 L 246.27,0.46 L 246.44,0.43 L 248.25,0.26 L 249.26,0.18 L 251.77,0.07 L 256.07,0.00 L 257.18,0.00 Z" fill="rgba(47,123,116,1)"/>
<path d="M 42.76,511.34 L 43.10,511.20 L 43.48,510.71 L 43.45,509.91 L 43.29,509.66 L 43.62,509.27 L 44.83,509.00 L 45.37,509.00 L 46.38,509.44 L 47.36,510.50 L 47.47,510.79 L 47.48,511.22 L 47.45,511.41 L 47.13,511.66 L 46.93,511.77 L 46.23,511.89 L 44.72,511.92 L 44.28,511.91 L 43.57,511.85 L 43.25,511.82 L 42.81,511.72 L 42.64,511.66 L 42.52,511.54 L 42.51,511.47 M 464.64,510.50 L 464.80,510.09 L 465.72,509.44 L 467.50,509.00 L 468.13,509.00 L 469.28,509.44 L 470.36,510.50 L 470.47,510.79 L 470.47,511.22 L 470.43,511.42 L 470.09,511.68 L 469.87,511.80 L 469.13,511.93 L 467.50,512.00 L 466.84,512.00 L 465.87,511.93 L 465.45,511.88 L 464.91,511.68 L 464.69,511.57 L 464.53,511.22 L 464.49,511.03 M 31.18,486.86 L 31.27,485.93 L 31.70,484.56 L 31.82,484.28 L 32.09,483.92 L 32.50,483.75 L 32.69,483.80 L 32.98,484.09 L 33.11,484.27 L 33.29,484.78 L 33.45,485.32 L 33.47,486.71 L 33.43,487.41 L 33.08,488.67 L 32.18,489.77 L 31.94,489.85 L 31.59,489.80 L 31.43,489.73 L 31.23,489.35 L 31.15,489.12 L 31.10,488.39 L 31.09,487.97 M 478.00,487.61 L 478.00,486.95 L 478.44,485.75 L 479.50,484.64 L 479.78,484.53 L 480.21,484.52 L 480.40,484.55 L 480.67,484.84 L 480.79,485.02 L 480.92,485.66 L 481.00,487.03 L 481.00,487.52 L 480.91,488.33 L 480.84,488.70 L 480.62,489.26 L 480.50,489.50 L 480.15,489.81 L 479.50,490.00 L 479.04,490.00 L 478.41,489.35 L 478.15,488.94 M 203.00,302.50 L 203.00,302.09 L 203.29,301.44 L 204.00,301.00 L 204.27,301.00 L 204.71,301.44 L 205.00,302.50 L 205.00,302.91 L 204.71,303.56 L 204.00,304.00 L 203.72,304.00 L 203.29,303.56 L 203.11,303.29 M 307.00,302.50 L 307.00,302.09 L 307.44,301.44 L 308.50,301.00 L 308.91,301.00 L 309.56,301.44 L 310.00,302.50 L 310.00,302.91 L 309.56,303.56 L 308.50,304.00 L 308.09,304.00 L 307.44,303.56 L 307.17,303.29 M 213.00,301.50 L 213.00,301.22 L 213.25,300.79 L 213.42,300.59 L 214.08,300.33 L 214.47,300.21 L 215.62,300.08 L 218.00,300.00 L 218.94,300.00 L 220.38,300.08 L 221.02,300.13 L 221.92,300.33 L 222.31,300.44 L 222.75,300.79 L 223.00,301.50 L 223.00,301.78 L 222.75,302.21 L 222.58,302.41 L 221.92,302.67 L 221.53,302.79 L 220.38,302.92 L 218.00,303.00 L 217.06,303.00 L 215.62,302.92 L 214.98,302.87 L 214.08,302.67 L 213.69,302.56 L 213.25,302.21 L 213.08,302.02 M 289.00,301.50 L 289.00,301.22 L 289.25,300.79 L 289.42,300.59 L 290.08,300.33 L 290.47,300.21 L 291.62,300.08 L 294.00,300.00 L 294.94,300.00 L 296.38,300.08 L 297.02,300.13 L 297.92,300.33 L 298.31,300.44 L 298.75,300.79 L 299.00,301.50 L 299.00,301.78 L 298.75,302.21 L 298.58,302.41 L 297.92,302.67 L 297.53,302.79 L 296.38,302.92 L 294.00,303.00 L 293.06,303.00 L 291.62,302.92 L 290.98,302.87 L 290.08,302.67 L 289.69,302.56 L 289.25,302.21 L 289.08,302.02 M 245.00,268.43 L 245.00,268.16 L 245.15,267.74 L 245.25,267.55 L 245.63,267.31 L 245.84,267.21 L 246.46,267.13 L 247.67,267.18 L 248.65,267.30 L 249.92,267.82 L 250.44,268.10 L 250.77,268.76 L 250.82,269.09 L 250.18,269.62 L 249.96,269.74 L 249.32,269.90 L 248.08,270.00 L 247.55,270.00 L 246.70,269.91 L 246.31,269.85 L 245.74,269.62 L 245.49,269.49 L 245.18,269.14 L 245.06,268.94 M 261.64,268.50 L 261.80,268.09 L 262.57,267.44 L 264.00,267.00 L 264.49,267.00 L 265.43,267.44 L 266.36,268.50 L 266.47,268.78 L 266.48,269.21 L 266.45,269.40 L 266.17,269.67 L 265.98,269.79 L 265.36,269.92 L 264.00,270.00 L 263.45,270.00 L 262.64,269.92 L 262.28,269.87 L 261.83,269.67 L 261.65,269.55 L 261.52,269.21 L 261.49,269.02 M 122.00,154.00 L 122.00,153.72 L 122.46,153.29 L 123.56,153.00 L 123.99,153.00 L 124.48,153.29 L 124.50,154.00 L 124.33,154.28 L 123.79,154.71 L 122.94,155.00 L 122.68,155.00 L 122.28,154.71 L 122.11,154.53 M 121.00,142.42 L 121.00,141.85 L 121.10,140.95 L 121.17,140.53 L 121.38,139.93 L 121.49,139.66 L 121.77,139.35 L 121.92,139.23 L 122.24,139.21 L 122.40,139.23 L 122.72,139.49 L 122.88,139.66 L 123.18,140.19 L 123.33,140.50 L 123.56,141.31 L 123.81,142.83 L 123.87,143.41 L 123.88,144.31 L 123.86,144.72 L 123.71,145.29 L 123.61,145.54 L 123.28,145.83 L 122.56,146.00 L 122.28,146.00 L 121.84,145.80 L 121.64,145.67 L 121.36,145.18 L 121.23,144.89 L 121.09,144.07 L 121.03,143.61 M 388.50,144.00 L 388.32,143.71 L 388.25,143.03 L 388.25,142.70 L 388.50,142.06 L 388.66,141.76 L 389.15,141.30 L 390.06,141.00 L 390.32,141.00 L 390.72,141.59 L 391.00,143.00 L 391.00,143.53 L 390.76,144.28 L 390.60,144.61 L 390.14,144.93 L 389.89,145.02 L 389.33,144.85 L 389.05,144.70 M 121.00,127.00 L 121.00,126.48 L 121.08,125.65 L 121.13,125.27 L 121.32,124.74 L 121.42,124.51 L 121.71,124.27 L 122.25,124.25 L 122.59,124.36 L 123.13,125.23 L 123.50,127.00 L 123.50,127.64 L 123.13,128.77 L 122.25,129.75 L 122.04,129.82 L 121.71,129.73 L 121.55,129.65 L 121.32,129.26 L 121.21,129.03 L 121.08,128.35 L 121.03,127.97 M 388.50,127.00 L 388.33,126.72 L 388.52,126.29 L 389.44,126.00 L 389.87,126.00 L 390.54,126.29 L 391.00,127.00 L 391.00,127.27 L 390.72,127.71 L 390.06,128.00 L 389.80,128.00 L 389.21,127.71 L 388.93,127.52 M 246.45,2.09 L 246.60,1.83 L 246.48,1.29 L 245.76,0.66 L 245.67,0.63 L 245.75,0.56 L 245.83,0.53 L 246.22,0.47 L 246.44,0.44 L 247.11,0.39 L 247.48,0.36 L 248.39,0.32 L 249.37,0.28 L 251.94,0.22 L 256.50,0.19 L 258.15,0.20 L 261.02,0.25 L 262.37,0.27 L 264.46,0.36 L 264.92,0.38 L 265.66,0.43 L 266.00,0.45 L 266.48,0.51 L 266.67,0.54 L 266.85,0.60 L 266.74,0.69 L 266.25,0.82 L 265.66,1.29 L 265.55,2.08 L 265.63,2.21 L 265.03,2.45 L 264.62,2.56 L 263.13,2.74 L 262.28,2.82 L 260.04,2.93 L 256.00,3.00 L 254.53,3.00 L 251.99,2.93 L 250.79,2.89 L 248.90,2.74 L 248.05,2.66 L 246.98,2.45 L 246.56,2.34 Z" fill="rgba(49,123,116,1)"/>
</g>
</svg>